<svg version="1.1" id="Layer_1" xmlns="http://www.w3.org/2000/svg" xmlns:xlink="http://www.w3.org/1999/xlink" x="0px" y="0px"
	 width="100%" viewBox="0 0 240 240" enable-background="new 0 0 240 240" xml:space="preserve">
<path fill="#000000" opacity="1.000000" stroke="none" 
	d="
M1.000000,154.428467 
	C7.028379,158.924561 11.824334,165.130386 18.136690,169.822906 
	C29.702604,178.420837 30.045256,178.443756 35.050426,165.422058 
	C36.359703,162.015778 36.438850,159.500549 33.388992,156.678528 
	C28.119593,151.802795 25.967518,145.668655 29.129150,138.648071 
	C32.079372,132.096939 37.580975,129.454910 44.464802,129.732208 
	C48.453011,129.892853 50.702038,128.415283 51.748699,124.576675 
	C52.771202,120.826660 55.286621,117.538971 55.594872,112.748726 
	C37.131927,120.266769 19.312744,127.828491 1.356802,135.957321 
	C1.000000,134.611115 1.000000,133.222214 1.000000,131.416656 
	C13.303739,126.915771 24.866789,121.015625 36.931110,116.336006 
	C43.742836,113.693825 50.387291,110.621635 57.120541,107.774963 
	C58.600536,107.149269 60.198078,105.956078 61.670197,107.646904 
	C62.949535,109.116318 61.607639,110.571487 61.109039,111.809532 
	C52.977978,131.999359 44.746513,152.148773 36.524082,172.301727 
	C34.893242,176.298904 33.190529,180.266693 31.549631,184.259827 
	C30.449324,186.937439 28.909882,187.443207 26.076590,186.318527 
	C16.804628,182.638016 8.863270,177.015610 1.261257,170.206345 
	C1.000000,168.611115 1.000000,167.222214 1.286072,165.590729 
	C9.529873,171.733994 17.021526,178.876404 27.595516,181.126068 
	C17.596350,175.460190 9.218681,167.828842 1.000000,160.000000 
	C1.000000,158.285645 1.000000,156.571289 1.000000,154.428467 
M46.299099,133.655258 
	C38.557709,132.934189 33.537937,135.962067 31.641495,142.496597 
	C30.390770,146.806183 33.129509,151.733429 38.507019,154.848358 
	C41.522850,150.906586 46.587936,138.304214 46.299099,133.655258 
z"/>
<path fill="#000000" opacity="1.000000" stroke="none" 
	d="
M241.000000,16.600004 
	C233.706085,19.754486 226.357864,21.983309 218.361328,21.378447 
	C212.433090,20.930031 207.196136,16.415337 207.876648,10.592109 
	C208.354523,6.502855 206.809082,4.063086 204.156799,1.290794 
	C205.388885,1.000000 206.777786,1.000000 208.779755,1.301379 
	C213.669357,4.680489 218.905563,4.464419 224.000000,1.000000 
	C229.559540,1.000000 235.119064,1.000000 241.000000,1.000000 
	C241.000000,3.664050 241.000000,6.340977 240.691589,9.452564 
	C231.908829,11.918964 223.890457,15.768975 214.383392,15.717893 
	C216.269135,18.392939 218.277725,18.709816 220.514160,18.628956 
	C227.790833,18.365852 234.501373,16.076550 241.000000,13.000000 
	C241.000000,14.066669 241.000000,15.133339 241.000000,16.600004 
z"/>
<path fill="#000000" opacity="1.000000" stroke="none" 
	d="
M77.555832,1.000000 
	C77.304863,2.091500 76.065346,2.170877 75.025871,2.656371 
	C67.667557,6.093102 65.793526,15.250566 72.459923,19.530170 
	C78.296097,23.276794 78.550171,28.315855 79.314178,33.730511 
	C80.076767,39.135151 80.718597,44.557365 81.364319,49.977718 
	C81.650139,52.376972 82.964706,53.529148 85.330688,53.546249 
	C91.642265,53.591873 97.956894,53.522621 104.264450,53.703518 
	C108.240273,53.817539 109.330154,51.699188 109.713326,48.199501 
	C110.539185,40.656563 111.714775,33.152512 112.634247,25.618755 
	C112.832993,23.990284 113.468300,22.957644 114.770226,21.953995 
	C124.702316,14.297388 123.850708,6.844882 112.252640,1.239348 
	C114.370560,1.000000 116.741112,1.000000 119.555832,1.000000 
	C126.846954,10.850891 126.399673,16.592834 117.609795,24.356733 
	C114.619087,26.998362 115.318291,30.488699 114.608147,33.530315 
	C113.336800,38.975681 112.858467,44.636589 112.422630,50.236507 
	C112.104279,54.326908 110.324173,56.341686 106.204773,56.324364 
	C98.877892,56.293552 91.550423,56.269962 84.223938,56.331402 
	C80.885048,56.359398 78.989777,55.178852 78.569191,51.555912 
	C77.768463,44.658478 76.503174,37.814861 75.708031,30.916943 
	C75.380020,28.071476 74.409607,25.985161 72.149643,24.159340 
	C64.023598,17.594328 63.278938,10.338270 69.808784,1.295266 
	C72.370560,1.000000 74.741112,1.000000 77.555832,1.000000 
z"/>
<path fill="#000000" opacity="1.000000" stroke="none" 
	d="
M1.000000,215.399994 
	C6.783372,217.951920 10.351651,222.582275 11.302351,229.029541 
	C11.555746,230.747955 11.720067,232.289993 13.508264,233.053482 
	C16.719694,234.424683 17.995087,237.196014 18.896738,240.659149 
	C13.500001,241.000000 7.999887,241.016113 2.500163,240.977219 
	C1.892019,240.972931 0.658144,241.596115 1.300608,239.358444 
	C10.426682,231.883591 10.255420,226.267090 1.000000,219.000000 
	C1.000000,217.933334 1.000000,216.866653 1.000000,215.399994 
z"/>
<path fill="#000000" opacity="1.000000" stroke="none" 
	d="
M241.000000,214.600006 
	C237.801041,214.289886 234.602524,213.587219 231.281738,215.778870 
	C231.001251,215.999344 231.014877,215.992218 231.014877,215.992218 
	C218.100220,216.935791 206.735016,227.545990 205.046295,240.596222 
	C203.933334,241.000000 202.866653,241.000000 201.399994,241.000000 
	C202.974670,234.152649 204.640350,227.315979 210.309616,222.104080 
	C217.605637,215.396652 225.663574,211.213211 235.773651,211.608765 
	C237.251511,211.666595 238.742203,211.396454 240.613480,211.139038 
	C241.000000,212.066666 241.000000,213.133347 241.000000,214.600006 
z"/>
<path fill="#000000" opacity="1.000000" stroke="none" 
	d="
M241.000000,156.562500 
	C236.545349,153.031876 234.634598,147.524460 232.177429,142.355728 
	C231.310577,140.532288 232.540314,139.548859 233.959656,138.887253 
	C236.042908,137.916153 238.191666,137.085602 240.656250,136.097595 
	C241.000000,138.370560 241.000000,140.741104 240.753738,143.392395 
	C239.423920,143.192734 239.062622,141.333298 237.015808,142.122726 
	C237.394501,145.223389 238.799667,147.792999 241.000000,150.000000 
	C241.000000,152.041672 241.000000,154.083328 241.000000,156.562500 
z"/>
<path fill="#000000" opacity="1.000000" stroke="none" 
	d="
M15.583334,1.000000 
	C12.213600,5.917580 6.879847,8.781645 1.332050,11.901159 
	C1.000000,10.611111 1.000000,9.222222 1.279225,7.503719 
	C5.640109,6.545086 8.129170,3.480639 11.000000,1.000000 
	C12.388889,1.000000 13.777778,1.000000 15.583334,1.000000 
z"/>
<path fill="#000000" opacity="1.000000" stroke="none" 
	d="
M214.250000,241.000000 
	C213.515518,240.323196 213.015610,239.656815 212.549927,238.967316 
	C211.719940,237.738373 211.458466,236.504822 212.767426,235.427444 
	C213.786972,234.588287 214.972229,234.591125 216.017441,235.274933 
	C217.396027,236.176865 217.381821,237.440277 216.545761,238.747650 
	C216.187134,239.308426 215.795944,239.848404 215.209778,240.698914 
	C215.000000,241.000000 214.500000,241.000000 214.250000,241.000000 
z"/>
<path fill="#000000" opacity="1.000000" stroke="none" 
	d="
M116.510826,199.848831 
	C111.199921,197.343948 107.878464,193.693466 106.925995,188.145203 
	C106.609154,186.299561 105.884613,185.009964 104.069572,183.879227 
	C100.592560,181.713074 100.873466,177.321381 104.407616,174.879791 
	C105.492126,174.130569 107.024101,173.801483 107.309471,172.366089 
	C109.278091,162.463745 116.905838,159.482407 125.308708,158.909927 
	C137.038162,158.110825 148.835648,158.074905 160.229889,162.306107 
	C166.137131,164.499741 169.433121,168.263824 172.040451,174.020065 
	C174.765381,180.035995 176.444397,183.844635 171.857880,190.717804 
	C166.777466,198.331070 160.886154,202.498947 152.823502,203.063934 
	C140.789780,203.907181 128.566269,204.276810 116.510826,199.848831 
M148.846634,200.329086 
	C151.933960,199.736267 155.151962,199.509415 158.077866,198.464569 
	C162.432434,196.909531 166.413376,194.619919 167.302200,188.922623 
	C148.228867,188.027939 129.576920,187.153015 110.728966,186.268890 
	C111.839874,192.986633 116.474609,197.077347 124.234825,198.524948 
	C132.064987,199.985596 139.949814,201.167694 148.846634,200.329086 
M138.584351,174.671371 
	C148.223953,174.671371 157.863556,174.671371 167.448486,174.671371 
	C167.011047,171.167236 165.908264,169.251266 161.836227,167.251785 
	C147.992752,160.454269 133.570358,159.917709 118.880592,163.904587 
	C116.107712,164.657166 113.928879,166.625366 112.420204,169.132065 
	C110.787987,171.844025 111.225624,173.615738 114.783348,173.623566 
	C122.415993,173.640350 130.052765,173.534241 138.584351,174.671371 
M170.143372,185.138611 
	C171.494537,184.318359 172.862564,183.247559 171.619324,181.634979 
	C170.372742,180.018051 168.225052,179.304794 166.309753,179.640015 
	C163.613419,180.111908 162.956284,182.321976 163.016052,184.769501 
	C165.254211,186.073364 167.387161,185.584885 170.143372,185.138611 
M113.618210,176.471130 
	C110.620598,176.379715 107.788422,176.704071 105.692390,179.557831 
	C107.615433,182.196823 110.012711,183.513062 112.881882,181.948257 
	C114.718285,180.946716 116.181114,179.051987 113.618210,176.471130 
M156.215088,182.860336 
	C158.544556,185.291946 158.628830,182.713623 159.177948,181.471252 
	C159.665192,180.368790 159.152115,179.429916 158.003174,179.289642 
	C155.545944,178.989639 155.240875,180.369202 156.215088,182.860336 
z"/>
<path fill="#000000" opacity="1.000000" stroke="none" 
	d="
M178.226288,99.689529 
	C180.073380,96.010002 184.051437,99.090714 186.440857,96.443466 
	C185.111984,90.575203 182.544495,84.668388 183.972580,78.289948 
	C187.095398,76.911621 190.485703,78.428810 193.418762,76.798859 
	C195.647476,71.075226 192.382782,67.986542 188.063339,65.128334 
	C182.876373,61.696083 183.562286,53.985870 189.148209,51.360767 
	C190.982681,53.161137 189.043488,54.366051 188.375778,55.674793 
	C186.726212,58.908012 187.150757,61.403355 190.544983,63.147976 
	C195.891632,65.896149 198.274780,70.185120 197.045959,76.171837 
	C198.534149,77.094543 200.105667,77.106979 200.373337,75.486870 
	C200.829208,72.727425 204.108292,70.309280 201.529770,67.140404 
	C199.852783,65.079453 198.324356,62.884834 196.524414,60.939774 
	C194.027878,58.241913 192.880264,55.371979 194.722046,51.910465 
	C196.701492,48.190239 199.324661,45.261406 204.335434,44.594189 
	C203.768677,47.883888 201.387436,49.143181 199.718292,50.740513 
	C196.318512,53.994061 196.568283,57.017807 199.631226,60.135292 
	C202.671021,63.229244 205.913666,66.097267 205.553619,71.109909 
	C205.441299,72.673729 206.759048,73.326622 208.402939,72.807953 
	C210.281403,72.215279 211.165985,70.972420 210.844620,69.044029 
	C210.325073,65.926727 208.227280,63.782593 206.215424,61.525414 
	C202.431641,57.280273 202.216415,53.933701 206.189209,49.098431 
	C204.961853,57.065392 210.496475,60.743557 213.452362,65.808853 
	C215.772415,69.784569 213.624542,73.071823 210.765076,76.511726 
	C215.650925,78.543831 222.509827,75.986481 224.003067,83.380798 
	C225.232193,89.467247 222.404770,93.183907 217.065964,95.896660 
	C218.539474,97.859283 220.419678,97.569321 222.134918,97.656776 
	C223.639938,97.733513 225.460800,97.573494 225.775528,99.454208 
	C226.102112,101.405930 224.452637,102.313965 222.905731,103.063103 
	C218.906448,104.999924 214.413193,104.845634 210.246582,105.205437 
	C201.341843,105.974388 192.332565,105.625153 183.530090,103.426521 
	C181.367783,102.886429 179.388916,102.183189 178.226288,99.689529 
M191.627502,96.094902 
	C195.897995,98.978432 200.716843,96.969482 205.231323,97.633972 
	C209.738968,98.297447 212.779526,96.249725 215.456375,92.882492 
	C217.411819,90.422737 214.751572,88.071297 215.852753,85.570335 
	C217.683441,81.412491 215.282608,80.284386 211.523865,80.333870 
	C205.199463,80.417122 198.873169,80.344604 192.547760,80.364487 
	C186.507126,80.383476 186.422714,80.712143 187.193771,86.590172 
	C187.648224,90.054626 188.942963,92.940720 191.627502,96.094902 
M196.384384,100.903702 
	C195.158600,101.086197 193.892822,99.970634 191.819229,101.639038 
	C199.828278,102.149948 206.958557,102.356956 214.081100,100.928574 
	C208.453949,100.928574 202.826797,100.928574 196.384384,100.903702 
z"/>
<path fill="#000000" opacity="1.000000" stroke="none" 
	d="
M100.890175,50.844955 
	C99.470016,45.598244 100.939926,40.916061 102.813728,36.228218 
	C105.720169,40.169617 102.381615,44.317326 103.275925,48.320789 
	C103.565895,49.618820 103.021202,51.013351 100.890175,50.844955 
z"/>
<path fill="#000000" opacity="1.000000" stroke="none" 
	d="
M90.401718,39.947762 
	C91.370903,43.897888 91.705460,47.420853 90.832108,51.324467 
	C87.384949,47.916340 86.645866,41.371014 88.827644,36.347973 
	C90.692017,36.752811 90.121162,38.343037 90.401718,39.947762 
z"/>
<path fill="#000000" opacity="1.000000" stroke="none" 
	d="
M94.701454,35.608643 
	C95.183990,33.169285 96.704857,31.893970 97.089714,34.655876 
	C97.774971,39.573627 97.282333,44.655510 96.496475,49.690979 
	C93.703484,45.360729 95.129440,40.580456 94.701454,35.608643 
z"/>
<path fill="#000000" opacity="1.000000" stroke="none" 
	d="
M10.818758,136.758270 
	C15.458897,137.965210 16.002798,141.167923 14.975963,144.587570 
	C14.055411,147.653275 11.353566,148.813919 8.263476,148.201233 
	C5.230525,147.599854 3.044086,145.621857 3.267732,142.420792 
	C3.557875,138.267929 6.316193,136.493851 10.818758,136.758270 
z"/>
<path fill="#000000" opacity="1.000000" stroke="none" 
	d="
M230.995575,216.002838 
	C231.256439,216.197083 231.553238,216.356964 231.784683,216.583588 
	C233.368393,218.134430 234.051193,219.904495 232.396149,221.730301 
	C231.700592,222.497620 230.464157,222.330215 229.736633,221.533752 
	C227.988754,219.620300 228.683578,217.971741 230.761581,216.272125 
	C231.014877,215.992218 231.001251,215.999344 230.995575,216.002838 
z"/>
<path fill="#000000" opacity="1.000000" stroke="none" 
	d="
M229.102692,234.148193 
	C226.946823,233.171921 226.131088,231.886017 227.884186,230.382172 
	C229.134155,229.309952 230.815567,229.459045 231.626205,230.969910 
	C232.704346,232.979355 231.410583,233.895416 229.102692,234.148193 
z"/>
</svg>