<?xml version="1.0" encoding="UTF-8" ?>
<!DOCTYPE svg PUBLIC "-//W3C//DTD SVG 1.1//EN" "http://www.w3.org/Graphics/SVG/1.1/DTD/svg11.dtd">
<svg width="250pt" height="250pt" viewBox="0 0 250 250" version="1.1" xmlns="http://www.w3.org/2000/svg">
<g id="#ffffffff">
<path fill="#ffffff" opacity="1.00" d=" M 0.00 0.00 L 250.00 0.00 L 250.00 250.00 L 0.00 250.00 L 0.00 0.00 M 87.54 14.30 C 83.06 17.45 75.57 19.49 75.02 25.99 C 73.57 31.38 78.31 34.41 81.78 37.18 C 82.77 44.58 83.95 51.95 85.58 59.24 C 93.01 58.99 100.44 58.67 107.86 58.21 C 108.84 51.71 109.38 45.13 110.98 38.74 C 112.82 33.84 119.31 30.61 116.63 24.41 C 114.69 18.20 107.13 17.23 102.56 13.57 C 98.18 9.85 91.84 11.18 87.54 14.30 M 190.96 14.75 C 193.03 17.76 195.98 20.33 197.00 23.95 C 195.13 28.41 190.71 31.41 189.30 36.08 C 189.51 38.23 190.58 40.17 191.44 42.12 C 191.61 39.69 191.29 37.16 192.08 34.82 C 193.88 30.97 197.34 28.03 198.68 23.95 C 198.44 19.54 193.83 17.44 190.96 14.75 M 189.78 19.70 C 188.11 26.38 183.48 31.89 182.09 38.64 C 183.78 40.32 185.88 41.49 187.95 42.62 C 186.27 40.66 184.50 38.79 182.74 36.91 C 185.43 31.30 192.14 26.46 189.78 19.70 M 203.43 19.56 C 203.78 22.94 204.30 26.30 204.76 29.68 C 202.17 31.46 199.60 33.26 197.03 35.06 C 197.09 36.84 197.20 40.40 197.26 42.18 C 198.04 40.01 198.56 37.69 199.86 35.75 C 202.05 32.98 205.36 31.15 207.00 27.92 C 206.32 24.95 204.65 22.31 203.43 19.56 M 176.58 42.83 C 174.87 45.85 172.95 48.96 173.30 52.64 C 174.94 56.01 178.30 58.05 180.80 60.73 C 177.28 61.32 173.76 61.91 170.27 62.66 C 176.13 66.26 183.21 67.40 190.01 67.03 C 198.05 66.83 206.60 66.51 213.80 62.49 C 210.51 61.55 207.10 61.01 203.72 60.52 C 206.61 55.17 207.08 49.03 207.70 43.09 C 197.32 43.01 186.95 42.97 176.58 42.83 M 6.79 113.04 C 12.35 125.85 22.87 135.77 35.60 141.35 C 42.03 125.13 49.02 109.14 55.13 92.80 C 38.85 99.14 22.89 106.27 6.79 113.04 M 136.47 120.48 C 138.19 126.20 137.84 132.65 141.33 137.72 C 149.09 146.09 160.70 149.14 171.41 151.59 C 180.30 153.70 186.66 146.62 193.04 141.89 C 191.19 136.02 190.81 129.63 187.82 124.19 C 180.15 117.04 169.88 113.49 159.85 111.15 C 150.48 107.56 143.82 116.42 136.47 120.48 M 70.14 198.09 C 69.87 196.94 69.60 195.80 69.32 194.65 C 64.52 201.92 60.72 211.06 64.19 219.78 C 67.94 225.65 75.57 229.50 82.56 227.49 C 91.37 226.40 98.17 216.49 93.94 207.98 C 89.13 198.36 84.45 188.44 84.09 177.46 C 77.29 182.57 70.47 188.95 70.14 198.09 M 208.32 189.28 C 198.40 190.59 188.32 196.67 185.88 206.98 C 183.74 212.75 188.11 217.90 189.41 223.29 C 190.61 226.73 191.63 231.70 196.02 232.02 C 206.82 232.22 217.22 228.02 225.96 221.91 C 229.71 219.07 235.76 214.27 231.90 208.97 C 228.95 204.71 226.98 199.92 224.44 195.44 C 220.52 191.07 214.16 188.79 208.32 189.28 Z" />
<path fill="#ffffff" opacity="1.00" d=" M 82.60 19.58 C 87.71 17.28 91.74 12.17 97.94 13.08 C 101.76 14.06 104.52 17.15 108.01 18.83 C 110.88 20.54 115.02 21.94 115.34 25.84 C 116.07 29.71 112.66 32.59 110.87 35.63 C 107.53 42.11 107.74 49.63 106.55 56.66 C 99.75 56.84 92.96 56.95 86.17 57.04 C 85.48 51.35 84.91 45.64 83.84 40.00 C 82.97 34.50 75.74 32.22 76.96 25.93 C 76.40 22.46 80.20 21.02 82.60 19.58 M 97.35 55.21 C 97.00 50.71 96.55 46.22 96.14 41.73 C 96.47 46.23 96.84 50.73 97.35 55.21 M 91.65 43.67 C 91.90 47.55 92.12 51.43 92.52 55.30 C 92.35 51.42 92.08 47.53 91.65 43.67 M 101.41 43.66 C 101.02 47.53 100.79 51.41 100.74 55.30 C 101.04 51.43 101.21 47.54 101.41 43.66 Z" />
<path fill="#ffffff" opacity="1.00" d=" M 176.19 44.92 C 186.32 44.96 196.46 44.97 206.60 45.08 C 205.26 50.65 204.00 56.30 201.33 61.42 C 195.71 60.99 189.94 61.47 184.39 60.40 C 181.00 58.88 177.87 56.49 175.63 53.51 C 175.58 50.63 175.81 47.77 176.19 44.92 M 177.39 46.32 C 177.66 49.52 178.50 52.63 179.79 55.57 C 179.51 52.37 178.78 49.22 177.39 46.32 Z" />
<path fill="#ffffff" opacity="1.00" d=" M 174.58 63.58 C 185.85 62.99 197.16 62.80 208.43 63.44 C 197.26 65.07 185.71 65.99 174.58 63.58 Z" />
<path fill="#ffffff" opacity="1.00" d=" M 12.83 112.30 C 25.97 106.79 38.89 100.71 52.29 95.86 C 50.94 99.04 50.16 102.71 47.71 105.26 C 43.52 107.12 37.45 107.59 35.34 112.43 C 33.25 117.62 37.67 121.10 39.78 125.09 C 39.36 128.75 37.65 132.13 36.48 135.59 C 26.28 130.60 18.07 122.34 12.83 112.30 M 19.30 112.45 C 20.43 114.40 21.61 116.32 22.83 118.21 C 24.55 117.23 26.26 116.24 27.97 115.26 C 26.87 113.99 25.84 112.65 24.53 111.60 C 22.75 111.58 21.03 112.10 19.30 112.45 Z" />
<path fill="#ffffff" opacity="1.00" d=" M 36.37 114.29 C 37.60 109.54 42.88 108.41 47.09 108.06 C 45.35 113.29 43.26 118.40 41.21 123.52 C 39.01 120.89 36.12 117.98 36.37 114.29 Z" />
<path fill="#ffffff" opacity="1.00" d=" M 22.40 112.47 C 22.93 112.45 23.97 112.40 24.50 112.38 C 24.70 113.61 24.90 114.85 25.10 116.09 C 24.40 115.92 23.01 115.59 22.32 115.43 C 22.34 114.44 22.37 113.45 22.40 112.47 Z" />
<path fill="#ffffff" opacity="1.00" d=" M 154.42 112.67 C 165.00 113.12 174.96 117.69 183.71 123.36 C 187.96 125.82 188.89 130.75 189.51 135.21 C 174.27 129.91 159.36 123.71 144.22 118.16 C 146.72 115.11 150.17 112.26 154.42 112.67 Z" />
<path fill="#ffffff" opacity="1.00" d=" M 8.94 113.83 C 9.56 113.67 10.80 113.35 11.41 113.19 C 16.84 124.06 26.56 131.28 35.70 138.75 C 23.44 135.04 14.15 125.28 8.94 113.83 Z" />
<path fill="#ffffff" opacity="1.00" d=" M 137.55 120.55 C 141.72 120.70 145.92 121.08 149.90 122.37 C 147.77 123.79 145.74 125.65 143.11 126.02 C 140.73 124.82 139.16 122.58 137.55 120.55 Z" />
<path fill="#ffffff" opacity="1.00" d=" M 151.96 122.99 C 153.64 123.78 155.32 124.57 157.01 125.35 C 155.49 127.06 153.98 128.76 152.44 130.45 C 152.32 128.58 152.08 124.86 151.96 122.99 Z" />
<path fill="#ffffff" opacity="1.00" d=" M 149.30 124.70 C 151.17 125.14 150.13 128.32 148.37 127.98 C 146.51 127.49 147.73 124.64 149.30 124.70 Z" />
<path fill="#ffffff" opacity="1.00" d=" M 159.89 126.13 C 161.94 126.92 163.99 127.70 166.05 128.46 C 164.33 130.04 162.62 131.62 160.90 133.19 C 160.55 130.83 160.22 128.48 159.89 126.13 Z" />
<path fill="#ffffff" opacity="1.00" d=" M 140.40 127.02 C 155.54 132.89 170.70 138.70 185.78 144.71 C 182.41 148.63 177.45 150.97 172.13 149.88 C 161.87 147.53 150.85 144.47 143.16 136.82 C 140.44 134.34 140.62 130.38 140.40 127.02 Z" />
<path fill="#ffffff" opacity="1.00" d=" M 157.19 128.36 C 159.00 128.76 157.96 131.65 156.29 131.13 C 154.48 130.70 155.59 127.96 157.19 128.36 Z" />
<path fill="#ffffff" opacity="1.00" d=" M 163.85 133.91 C 164.75 132.55 165.67 131.19 166.59 129.85 C 166.64 131.60 166.70 133.35 166.77 135.10 C 165.79 134.70 164.82 134.30 163.85 133.91 Z" />
<path fill="#ffffff" opacity="1.00" d=" M 168.66 130.00 C 170.51 130.44 172.36 130.88 174.21 131.32 C 172.60 133.09 170.97 134.85 169.28 136.54 C 169.03 134.36 168.81 132.19 168.66 130.00 Z" />
<path fill="#ffffff" opacity="1.00" d=" M 177.03 132.74 C 178.78 133.53 180.51 134.33 182.25 135.15 C 180.82 136.79 179.40 138.44 177.93 140.05 C 177.71 138.22 177.26 134.57 177.03 132.74 Z" />
<path fill="#ffffff" opacity="1.00" d=" M 174.14 134.45 C 176.02 134.50 175.86 137.73 174.03 137.73 C 172.12 137.66 172.31 134.47 174.14 134.45 Z" />
<path fill="#ffffff" opacity="1.00" d=" M 184.53 135.29 C 187.29 137.18 189.84 139.40 191.90 142.06 C 188.09 142.19 184.32 141.63 180.59 140.94 C 181.87 139.03 183.19 137.16 184.53 135.29 Z" />
<path fill="#ffffff" opacity="1.00" d=" M 73.48 191.31 C 75.64 187.16 78.90 183.63 82.25 180.38 C 84.29 188.10 85.84 196.09 89.81 203.11 C 91.95 207.99 95.68 214.00 91.97 218.97 C 86.98 228.32 71.95 228.54 66.41 219.64 C 61.77 213.30 65.89 205.52 67.99 198.98 C 69.81 201.49 71.68 203.96 73.67 206.33 C 73.52 201.33 73.13 196.30 73.48 191.31 M 74.30 221.68 C 75.98 225.51 80.68 223.89 83.87 222.86 C 85.78 216.36 81.94 209.65 81.15 203.25 C 77.03 208.28 70.14 214.67 74.30 221.68 Z" />
<path fill="#ffffff" opacity="1.00" d=" M 186.92 208.98 C 189.08 196.10 204.10 188.60 216.16 191.75 C 222.12 193.41 225.74 199.04 227.21 204.75 C 217.16 212.12 205.84 219.47 193.00 219.96 C 188.06 219.49 186.30 213.09 186.92 208.98 M 205.25 194.40 C 203.79 195.74 206.08 198.06 207.41 196.56 C 208.86 195.25 206.56 192.98 205.25 194.40 M 196.25 198.40 C 194.79 199.74 197.08 202.06 198.41 200.56 C 199.86 199.25 197.56 196.98 196.25 198.40 M 212.85 197.85 C 212.99 198.76 213.27 200.58 213.41 201.48 C 214.44 200.47 215.47 199.44 216.48 198.41 C 215.58 198.27 213.76 197.99 212.85 197.85 M 220.38 201.45 C 220.37 202.48 220.37 203.52 220.38 204.55 C 220.94 204.55 222.06 204.55 222.62 204.55 C 222.62 203.52 222.62 202.48 222.62 201.45 C 222.06 201.45 220.94 201.45 220.38 201.45 M 203.32 202.60 C 203.57 203.75 203.82 204.89 204.08 206.05 C 204.73 205.88 206.03 205.56 206.68 205.40 C 206.43 204.25 206.17 203.10 205.92 201.95 C 205.27 202.12 203.97 202.44 203.32 202.60 M 192.90 205.91 C 193.10 207.15 193.30 208.38 193.50 209.62 C 194.03 209.60 195.07 209.55 195.60 209.53 C 195.63 208.54 195.65 207.56 195.68 206.57 C 194.99 206.41 193.60 206.08 192.90 205.91 M 211.41 205.52 C 211.27 206.42 210.99 208.24 210.85 209.15 C 211.76 209.01 213.58 208.73 214.48 208.59 C 213.47 207.55 212.44 206.53 211.41 205.52 M 202.41 209.52 C 202.27 210.42 201.99 212.24 201.85 213.15 C 202.76 213.01 204.58 212.73 205.48 212.59 C 204.47 211.55 203.44 210.53 202.41 209.52 M 191.52 214.41 C 192.53 215.44 193.55 216.47 194.59 217.48 C 194.73 216.58 195.01 214.76 195.15 213.85 C 194.24 213.99 192.42 214.27 191.52 214.41 Z" />
<path fill="#ffffff" opacity="1.00" d=" M 193.78 223.19 C 205.30 219.21 216.77 214.53 226.71 207.35 C 219.32 217.86 205.70 221.21 193.78 223.19 Z" />
<path fill="#ffffff" opacity="1.00" d=" M 190.26 224.27 C 205.45 224.95 220.29 218.01 230.48 206.91 C 226.20 216.11 216.58 220.30 207.64 223.62 C 202.07 225.27 195.75 226.98 190.26 224.27 Z" />
<path fill="#ffffff" opacity="1.00" d=" M 74.19 220.66 C 74.74 215.86 76.41 211.24 79.40 207.43 C 81.13 211.50 82.87 215.58 84.40 219.74 C 82.64 220.88 80.87 222.01 79.09 223.12 C 77.46 222.30 75.83 221.47 74.19 220.66 Z" />
<path fill="#ffffff" opacity="1.00" d=" M 191.62 228.02 C 207.05 227.93 220.56 219.75 232.44 210.70 C 229.77 218.47 222.25 223.06 215.05 226.08 C 207.83 229.31 198.90 233.19 191.62 228.02 Z" />
</g>
<g id="#abababff">
<path fill="#ababab" opacity="1.00" d=" M 87.54 14.30 C 91.84 11.18 98.18 9.85 102.56 13.57 C 107.13 17.23 114.69 18.20 116.63 24.41 C 119.31 30.61 112.82 33.84 110.98 38.74 C 109.38 45.13 108.84 51.71 107.86 58.21 C 100.44 58.67 93.01 58.99 85.58 59.24 C 83.95 51.95 82.77 44.58 81.78 37.18 C 78.31 34.41 73.57 31.38 75.02 25.99 C 75.57 19.49 83.06 17.45 87.54 14.30 M 82.60 19.58 C 80.20 21.02 76.40 22.46 76.96 25.93 C 75.74 32.22 82.97 34.50 83.84 40.00 C 84.91 45.64 85.48 51.35 86.17 57.04 C 92.96 56.95 99.75 56.84 106.55 56.66 C 107.74 49.63 107.53 42.11 110.87 35.63 C 112.66 32.59 116.07 29.71 115.34 25.84 C 115.02 21.94 110.88 20.54 108.01 18.83 C 104.52 17.15 101.76 14.06 97.94 13.08 C 91.74 12.17 87.71 17.28 82.60 19.58 Z" />
<path fill="#ababab" opacity="1.00" d=" M 190.96 14.75 C 193.83 17.44 198.44 19.54 198.68 23.95 C 197.34 28.03 193.88 30.97 192.08 34.82 C 191.29 37.16 191.61 39.69 191.44 42.12 C 190.58 40.17 189.51 38.23 189.30 36.08 C 190.71 31.41 195.13 28.41 197.00 23.95 C 195.98 20.33 193.03 17.76 190.96 14.75 Z" />
<path fill="#ababab" opacity="1.00" d=" M 189.78 19.70 C 192.14 26.46 185.43 31.30 182.74 36.91 C 184.50 38.79 186.27 40.66 187.95 42.62 C 185.88 41.49 183.78 40.32 182.09 38.64 C 183.48 31.89 188.11 26.38 189.78 19.70 Z" />
<path fill="#ababab" opacity="1.00" d=" M 203.43 19.56 C 204.65 22.31 206.32 24.95 207.00 27.92 C 205.36 31.15 202.05 32.98 199.86 35.75 C 198.56 37.69 198.04 40.01 197.26 42.18 C 197.20 40.40 197.09 36.84 197.03 35.06 C 199.60 33.26 202.17 31.46 204.76 29.68 C 204.30 26.30 203.78 22.94 203.43 19.56 Z" />
<path fill="#ababab" opacity="1.00" d=" M 97.35 55.21 C 96.84 50.73 96.47 46.23 96.14 41.73 C 96.55 46.22 97.00 50.71 97.35 55.21 Z" />
<path fill="#ababab" opacity="1.00" d=" M 176.58 42.83 C 186.95 42.97 197.32 43.01 207.70 43.09 C 207.08 49.03 206.61 55.17 203.72 60.52 C 207.10 61.01 210.51 61.55 213.80 62.49 C 206.60 66.51 198.05 66.83 190.01 67.03 C 183.21 67.40 176.13 66.26 170.27 62.66 C 173.76 61.91 177.28 61.32 180.80 60.73 C 178.30 58.05 174.94 56.01 173.30 52.64 C 172.95 48.96 174.87 45.85 176.58 42.83 M 176.19 44.92 C 175.81 47.77 175.58 50.63 175.63 53.51 C 177.87 56.49 181.00 58.88 184.39 60.40 C 189.94 61.47 195.71 60.99 201.33 61.42 C 204.00 56.30 205.26 50.65 206.60 45.08 C 196.46 44.97 186.32 44.96 176.19 44.92 M 174.58 63.58 C 185.71 65.99 197.26 65.07 208.43 63.44 C 197.16 62.80 185.85 62.99 174.58 63.58 Z" />
<path fill="#ababab" opacity="1.00" d=" M 91.65 43.67 C 92.08 47.53 92.35 51.42 92.52 55.30 C 92.12 51.43 91.90 47.55 91.65 43.67 Z" />
<path fill="#ababab" opacity="1.00" d=" M 101.41 43.66 C 101.21 47.54 101.04 51.43 100.74 55.30 C 100.79 51.41 101.02 47.53 101.41 43.66 Z" />
<path fill="#ababab" opacity="1.00" d=" M 177.39 46.32 C 178.78 49.22 179.51 52.37 179.79 55.57 C 178.50 52.63 177.66 49.52 177.39 46.32 Z" />
<path fill="#ababab" opacity="1.00" d=" M 6.79 113.04 C 22.89 106.27 38.85 99.14 55.13 92.80 C 49.02 109.14 42.03 125.13 35.60 141.35 C 22.87 135.77 12.35 125.85 6.79 113.04 M 12.83 112.30 C 18.07 122.34 26.28 130.60 36.48 135.59 C 37.65 132.13 39.36 128.75 39.78 125.09 C 37.67 121.10 33.25 117.62 35.34 112.43 C 37.45 107.59 43.52 107.12 47.71 105.26 C 50.16 102.71 50.94 99.04 52.29 95.86 C 38.89 100.71 25.97 106.79 12.83 112.30 M 36.37 114.29 C 36.12 117.98 39.01 120.89 41.21 123.52 C 43.26 118.40 45.35 113.29 47.09 108.06 C 42.88 108.41 37.60 109.54 36.37 114.29 M 8.94 113.83 C 14.15 125.28 23.44 135.04 35.70 138.75 C 26.56 131.28 16.84 124.06 11.41 113.19 C 10.80 113.35 9.56 113.67 8.94 113.83 Z" />
<path fill="#ababab" opacity="1.00" d=" M 136.47 120.48 C 143.82 116.42 150.48 107.56 159.85 111.15 C 169.88 113.49 180.15 117.04 187.82 124.19 C 190.81 129.63 191.19 136.02 193.04 141.89 C 186.66 146.62 180.30 153.70 171.41 151.59 C 160.70 149.14 149.09 146.09 141.33 137.72 C 137.84 132.65 138.19 126.20 136.47 120.48 M 154.42 112.67 C 150.17 112.26 146.72 115.11 144.22 118.16 C 159.36 123.71 174.27 129.91 189.51 135.21 C 188.89 130.75 187.96 125.82 183.71 123.36 C 174.96 117.69 165.00 113.12 154.42 112.67 M 137.55 120.55 C 139.16 122.58 140.73 124.82 143.11 126.02 C 145.74 125.65 147.77 123.79 149.90 122.37 C 145.92 121.08 141.72 120.70 137.55 120.55 M 151.96 122.99 C 152.08 124.86 152.32 128.58 152.44 130.45 C 153.98 128.76 155.49 127.06 157.01 125.35 C 155.32 124.57 153.64 123.78 151.96 122.99 M 149.30 124.70 C 147.73 124.64 146.51 127.49 148.37 127.98 C 150.13 128.32 151.17 125.14 149.30 124.70 M 159.89 126.13 C 160.22 128.48 160.55 130.83 160.90 133.19 C 162.62 131.62 164.33 130.04 166.05 128.46 C 163.99 127.70 161.94 126.92 159.89 126.13 M 140.40 127.02 C 140.62 130.38 140.44 134.34 143.16 136.82 C 150.85 144.47 161.87 147.53 172.13 149.88 C 177.45 150.97 182.41 148.63 185.78 144.71 C 170.70 138.70 155.54 132.89 140.40 127.02 M 157.19 128.36 C 155.59 127.96 154.48 130.70 156.29 131.13 C 157.96 131.65 159.00 128.76 157.19 128.36 M 163.85 133.91 C 164.82 134.30 165.79 134.70 166.77 135.10 C 166.70 133.35 166.64 131.60 166.59 129.85 C 165.67 131.19 164.75 132.55 163.85 133.91 M 168.66 130.00 C 168.81 132.19 169.03 134.36 169.28 136.54 C 170.97 134.85 172.60 133.09 174.21 131.32 C 172.36 130.88 170.51 130.44 168.66 130.00 M 177.03 132.74 C 177.26 134.57 177.71 138.22 177.93 140.05 C 179.40 138.44 180.82 136.79 182.25 135.15 C 180.51 134.33 178.78 133.53 177.03 132.74 M 174.14 134.45 C 172.31 134.47 172.12 137.66 174.03 137.73 C 175.86 137.73 176.02 134.50 174.14 134.45 M 184.53 135.29 C 183.19 137.16 181.87 139.03 180.59 140.94 C 184.32 141.63 188.09 142.19 191.90 142.06 C 189.84 139.40 187.29 137.18 184.53 135.29 Z" />
<path fill="#ababab" opacity="1.00" d=" M 19.30 112.45 C 21.03 112.10 22.75 111.58 24.53 111.60 C 25.84 112.65 26.87 113.99 27.97 115.26 C 26.26 116.24 24.55 117.23 22.83 118.21 C 21.61 116.32 20.43 114.40 19.30 112.45 M 22.40 112.47 C 22.37 113.45 22.34 114.44 22.32 115.43 C 23.01 115.59 24.40 115.92 25.10 116.09 C 24.90 114.85 24.70 113.61 24.50 112.38 C 23.97 112.40 22.93 112.45 22.40 112.47 Z" />
<path fill="#ababab" opacity="1.00" d=" M 70.14 198.09 C 70.47 188.95 77.29 182.57 84.09 177.46 C 84.45 188.44 89.13 198.36 93.94 207.98 C 98.17 216.49 91.37 226.40 82.56 227.49 C 75.57 229.50 67.94 225.65 64.19 219.78 C 60.72 211.06 64.52 201.92 69.32 194.65 C 69.60 195.80 69.87 196.94 70.14 198.09 M 73.48 191.31 C 73.13 196.30 73.52 201.33 73.67 206.33 C 71.68 203.96 69.81 201.49 67.99 198.98 C 65.89 205.52 61.77 213.30 66.41 219.64 C 71.95 228.54 86.98 228.32 91.97 218.97 C 95.68 214.00 91.95 207.99 89.81 203.11 C 85.84 196.09 84.29 188.10 82.25 180.38 C 78.90 183.63 75.64 187.16 73.48 191.31 Z" />
<path fill="#ababab" opacity="1.00" d=" M 208.32 189.28 C 214.16 188.79 220.52 191.07 224.44 195.44 C 226.98 199.92 228.95 204.71 231.90 208.97 C 235.76 214.27 229.71 219.07 225.96 221.91 C 217.22 228.02 206.82 232.22 196.02 232.02 C 191.63 231.70 190.61 226.73 189.41 223.29 C 188.11 217.90 183.74 212.75 185.88 206.98 C 188.32 196.67 198.40 190.59 208.32 189.28 M 186.92 208.98 C 186.30 213.09 188.06 219.49 193.00 219.96 C 205.84 219.47 217.16 212.12 227.21 204.75 C 225.74 199.04 222.12 193.41 216.16 191.75 C 204.10 188.60 189.08 196.10 186.92 208.98 M 193.78 223.19 C 205.70 221.21 219.32 217.86 226.71 207.35 C 216.77 214.53 205.30 219.21 193.78 223.19 M 190.26 224.27 C 195.75 226.98 202.07 225.27 207.64 223.62 C 216.58 220.30 226.20 216.11 230.48 206.91 C 220.29 218.01 205.45 224.95 190.26 224.27 M 191.62 228.02 C 198.90 233.19 207.83 229.31 215.05 226.08 C 222.25 223.06 229.77 218.47 232.44 210.70 C 220.56 219.75 207.05 227.93 191.62 228.02 Z" />
<path fill="#ababab" opacity="1.00" d=" M 205.25 194.40 C 206.56 192.98 208.86 195.25 207.41 196.56 C 206.08 198.06 203.79 195.74 205.25 194.40 Z" />
<path fill="#ababab" opacity="1.00" d=" M 196.25 198.40 C 197.56 196.98 199.86 199.25 198.41 200.56 C 197.08 202.06 194.79 199.74 196.25 198.40 Z" />
<path fill="#ababab" opacity="1.00" d=" M 212.85 197.85 C 213.76 197.99 215.58 198.27 216.48 198.41 C 215.47 199.44 214.44 200.47 213.41 201.48 C 213.27 200.58 212.99 198.76 212.85 197.85 Z" />
<path fill="#ababab" opacity="1.00" d=" M 220.38 201.45 C 220.94 201.45 222.06 201.45 222.62 201.45 C 222.62 202.48 222.62 203.52 222.62 204.55 C 222.06 204.55 220.94 204.55 220.38 204.55 C 220.37 203.52 220.37 202.48 220.38 201.45 Z" />
<path fill="#ababab" opacity="1.00" d=" M 203.32 202.60 C 203.97 202.44 205.27 202.12 205.92 201.95 C 206.17 203.10 206.43 204.25 206.68 205.40 C 206.03 205.56 204.73 205.88 204.08 206.05 C 203.82 204.89 203.57 203.75 203.32 202.60 Z" />
<path fill="#ababab" opacity="1.00" d=" M 74.30 221.68 C 70.14 214.67 77.03 208.28 81.15 203.25 C 81.94 209.65 85.78 216.36 83.87 222.86 C 80.68 223.89 75.98 225.51 74.30 221.68 M 74.19 220.66 C 75.83 221.47 77.46 222.30 79.09 223.12 C 80.87 222.01 82.64 220.88 84.40 219.74 C 82.87 215.58 81.13 211.50 79.40 207.43 C 76.41 211.24 74.74 215.86 74.19 220.66 Z" />
<path fill="#ababab" opacity="1.00" d=" M 192.90 205.91 C 193.60 206.08 194.99 206.41 195.68 206.57 C 195.65 207.56 195.63 208.54 195.60 209.53 C 195.07 209.55 194.03 209.60 193.50 209.62 C 193.30 208.38 193.10 207.15 192.90 205.91 Z" />
<path fill="#ababab" opacity="1.00" d=" M 211.41 205.52 C 212.44 206.53 213.47 207.55 214.48 208.59 C 213.58 208.73 211.76 209.01 210.85 209.15 C 210.99 208.24 211.27 206.42 211.41 205.52 Z" />
<path fill="#ababab" opacity="1.00" d=" M 202.41 209.52 C 203.44 210.53 204.47 211.55 205.48 212.59 C 204.58 212.73 202.76 213.01 201.85 213.15 C 201.99 212.24 202.27 210.42 202.41 209.52 Z" />
<path fill="#ababab" opacity="1.00" d=" M 191.52 214.41 C 192.42 214.27 194.24 213.99 195.15 213.85 C 195.01 214.76 194.73 216.58 194.59 217.48 C 193.55 216.47 192.53 215.44 191.52 214.41 Z" />
</g>
</svg>
