<svg xmlns="http://www.w3.org/2000/svg" version="1.1" xmlns:xlink="http://www.w3.org/1999/xlink" xmlns:svgjs="http://svgjs.dev/svgjs" width="1440" height="560" preserveAspectRatio="none" viewBox="0 0 1440 560">
    <g mask="url(&quot;#SvgjsMask2616&quot;)" fill="none">
        <use xlink:href="#SvgjsG2626" transform="translate(0, 0)" fill="rgba(0, 0, 0, 1)"></use>
        <use xlink:href="#SvgjsG2626" transform="translate(720, 0)" fill="rgba(0, 0, 0, 1)"></use>
    </g>
    <defs>
        <mask id="SvgjsMask2616">
            <rect width="1440" height="560" fill="#ffffff"></rect>
        </mask>
        <g id="SvgjsG2623">
            <path d="M5.29 14.98C1.27 13.6-0.87 9.2 0.51 5.18 1.9 1.15 6.29-0.99 10.32 0.39S16.49 6.18 15.1 10.2c-1.39 4.03-5.79 6.17-9.81 4.78z m0.62-1.8c3.03 1.04 6.34-0.57 7.39-3.6 1.04-3.02-0.58-6.34-3.6-7.39-3.03-1.04-6.34 0.58-7.38 3.61-1.04 3.03 0.57 6.34 3.59 7.38z"></path>
            <path d="M7.51 8.66a0.57 0.57 0 0 1-0.51-0.22 0.58 0.58 0 0 1-0.11-0.46L8.34 3.74a0.58 0.58 0 0 1 1.1 0.38l-1.14 3.29 3.27-0.36a0.58 0.58 0 0 1 0.64 0.51c0.04 0.32-0.2 0.61-0.51 0.64l-4.19 0.46z"></path>
        </g>
        <g id="SvgjsG2621">
            <path d="M12.32 9.82c-0.97-0.33-2.03 0.18-2.37 1.16-0.34 0.97 0.18 2.03 1.16 2.37S13.14 13.17 13.47 12.2c0.34-0.97-0.18-2.04-1.15-2.38M1.47 8.48c-0.1 0.85 0.4 1.71 1.24 1.99 0.85 0.29 1.77-0.07 2.21-0.81L1.47 8.48z" fill-rule="evenodd"></path>
            <path d="M13.91 10.26c0.18-1.53-1.29-1.85-1.29-1.85l0.04-1.53c0.01-0.06 0.1-0.06 0.1-0.06l0.81 0.03 0.25-1.06L12.99 5.43C12.74 5.37 12.76 5.13 12.76 5.13l0.02-0.39C12.8 4.44 12.55 4.39 12.55 4.39L10.86 3.8c-0.3 0.1-0.07 0.34-0.07 0.34l1.04 0.36c0.1 0.02 0.12 0.15 0.12 0.16l-0.61 3.62c-1.58 0.42-2.13 1.34-2.14 1.34L7.26 8.95c-0.9-1.33 0.09-2.45 0.1-2.45l0.47 0.16 0.33-0.95L1.99 3.58l-0.33 0.96 0.94 0.32c-1.74 0.8-2.28 2.69-2.28 2.69l9.13 3.14A2.43 2.43 0 0 1 13.78 10.32s0.1 0.14 0.13-0.06" fill-rule="evenodd"></path>
        </g>
        <g id="SvgjsG2622">
            <path d="M16.58 7.54l-4.6 9.34L7.79 15.44 9.92 5.25l5.11 1.76L17.26 3.83 17.77 4.18l-2.12 3.04 0.93 0.32zM7.37 10.73s0.65-1.37-1.53-2.11L2.38 7.43c-2.17-0.75-2.5 0.73-2.5 0.72l7.49 2.58zM-1.04 10.81s-0.64 1.37 1.53 2.11l3.46 1.19c2.17 0.75 2.51-0.73 2.5-0.73L-1.04 10.81z m7.4 1.78a0.68 0.68 0 0 0 0.87-0.43c0.12-0.35-0.07-0.74-0.42-0.86L-0.06 8.94C-0.42 8.82-0.81 9-0.93 9.36a0.68 0.68 0 0 0 0.42 0.86l6.87 2.37z"></path>
        </g>
        <g id="SvgjsG2618">
            <path d="M8.64 5.33c-0.17 0.49-0.81 0.87-1.39 0.67l-2.88 8.37c-0.41 1.19-2.03 0.63-1.63-0.56L5.63 5.44c-0.57-0.2-0.91-0.81-0.69-1.46L6.53-0.63c0.14-0.4 0.72-0.22 0.58 0.21l-1.18 3.41 0.48 0.17L7.6-0.28c0.13-0.37 0.69-0.2 0.55 0.2l-1.18 3.43 0.5 0.17L8.65 0.09C8.79-0.3 9.34-0.13 9.19 0.29l-1.18 3.42 0.5 0.17L9.69 0.45c0.13-0.38 0.7-0.21 0.56 0.21l-1.61 4.67zM14.21 3.21l-4.48 13.01c-0.4 1.16-2.02 0.59-1.63-0.56L9.88 10.49l-0.86-0.29L11.72 2.35c0.63-1.83 3.12-0.97 2.49 0.86z"></path>
        </g>
        <g id="SvgjsG2619">
            <path d="M6.73-0.9s-1.27 4.41 2.65 5.35S11.05 0.97 6.73-0.9m-0.88 15.45a2.32 2.32 0 0 1-2.12 0.31c-0.61-0.21-1.1-0.7-1.36-1.24-0.51-1.17-0.88-3.53-0.88-3.53C1.31 8.68 1.31 7.64 1.64 6.7c0.69-2.01 2.92-3.19 4.93-2.5 0.99 0.34 1.75 1.05 2.19 1.91a3.83 3.83 0 0 1 2.9-0.16c2.01 0.69 3.04 2.99 2.34 5-0.32 0.94-0.96 1.77-1.97 2.77 0 0-1.75 1.63-2.87 2.24-0.54 0.26-1.23 0.34-1.83 0.13a2.32 2.32 0 0 1-1.48-1.54" fill-rule="evenodd"></path>
        </g>
        <g id="SvgjsG2617">
            <path d="M10.63 15.31L7 14.06l1.78-5.19L18.14 3.03 3.04-2.17l3.91 10.37-1.8 5.22-3.57-1.23c-1.23-0.42-1.87 1.41-0.63 1.84L10 17.15c1.23 0.42 1.85-1.42 0.63-1.84zM9.06 4.99c0.22-0.65 0.93-0.99 1.57-0.77 0.65 0.22 0.99 0.93 0.77 1.57-0.22 0.65-0.93 0.99-1.57 0.77-0.65-0.22-0.99-0.92-0.77-1.57z"></path>
        </g>
        <g id="SvgjsG2620">
            <path d="M13.33 14.22L-0.9 9.33c-0.43 1.26 0.32 2.17 1.1 2.44l10.76 3.7c0.92 0.32 1.98-0.13 2.37-1.25zM14.49 4.06L4.1 0.49l-2.34 6.81c-0.32 0.92 0.23 1.93 1.09 2.23l6.73 2.32c0.97 0.34 1.92-0.25 2.2-1.09L11.98 10.19c1.92 0.66 3.81-0.3 4.39-1.98 0.59-1.72-0.29-3.59-1.88-4.14z m0.65 3.73c-0.34 0.98-1.38 1.67-2.71 1.1L13.69 5.22l0.36 0.12 0 0c1.32 0.45 1.31 1.84 1.09 2.45l0 0z"></path>
        </g>
        <g id="SvgjsG2625">
            <path d="M13.05 5.77l-5.23 10.61L3.06 14.74 5.48 3.16l5.81 2L13.82 1.54 14.41 1.95l-2.42 3.45 1.06 0.37z" fill-rule="evenodd"></path>
        </g>
        <g id="SvgjsG2624">
            <path d="M14.71 7.65L3.86 14.99l4.11-6.37-4.01-1.31L8.41-0.32l4.84 1.67L9.52 5.87z"></path>
        </g>
        <g id="SvgjsG2626">
            <use xlink:href="#SvgjsG2617" transform="translate(0, 0) scale(2)" fill="rgba(0, 0, 0, 1)"></use>
            <use xlink:href="#SvgjsG2618" transform="translate(0, 72) scale(2)" fill="rgba(0, 0, 0, 1)"></use>
            <use xlink:href="#SvgjsG2618" transform="translate(0, 144) scale(2)" fill="rgba(0, 0, 0, 1)"></use>
            <use xlink:href="#SvgjsG2619" transform="translate(0, 216) scale(2)" fill="rgba(0, 0, 0, 1)"></use>
            <use xlink:href="#SvgjsG2618" transform="translate(0, 288) scale(2)" fill="rgba(0, 0, 0, 1)"></use>
            <use xlink:href="#SvgjsG2620" transform="translate(0, 360) scale(2)" fill="rgba(0, 0, 0, 1)"></use>
            <use xlink:href="#SvgjsG2617" transform="translate(0, 432) scale(2)" fill="rgba(0, 0, 0, 1)"></use>
            <use xlink:href="#SvgjsG2621" transform="translate(0, 504) scale(2)" fill="rgba(0, 0, 0, 1)"></use>
            <use xlink:href="#SvgjsG2618" transform="translate(72, 0) scale(2)" fill="rgba(0, 0, 0, 1)"></use>
            <use xlink:href="#SvgjsG2622" transform="translate(72, 72) scale(2)" fill="rgba(0, 0, 0, 1)"></use>
            <use xlink:href="#SvgjsG2618" transform="translate(72, 144) scale(2)" fill="rgba(0, 0, 0, 1)"></use>
            <use xlink:href="#SvgjsG2618" transform="translate(72, 216) scale(2)" fill="rgba(0, 0, 0, 1)"></use>
            <use xlink:href="#SvgjsG2622" transform="translate(72, 288) scale(2)" fill="rgba(0, 0, 0, 1)"></use>
            <use xlink:href="#SvgjsG2623" transform="translate(72, 360) scale(2)" fill="rgba(0, 0, 0, 1)"></use>
            <use xlink:href="#SvgjsG2621" transform="translate(72, 432) scale(2)" fill="rgba(0, 0, 0, 1)"></use>
            <use xlink:href="#SvgjsG2624" transform="translate(72, 504) scale(2)" fill="rgba(0, 0, 0, 1)"></use>
            <use xlink:href="#SvgjsG2621" transform="translate(144, 0) scale(2)" fill="rgba(0, 0, 0, 1)"></use>
            <use xlink:href="#SvgjsG2617" transform="translate(144, 72) scale(2)" fill="rgba(0, 0, 0, 1)"></use>
            <use xlink:href="#SvgjsG2620" transform="translate(144, 144) scale(2)" fill="rgba(0, 0, 0, 1)"></use>
            <use xlink:href="#SvgjsG2623" transform="translate(144, 216) scale(2)" fill="rgba(0, 0, 0, 1)"></use>
            <use xlink:href="#SvgjsG2624" transform="translate(144, 288) scale(2)" fill="rgba(0, 0, 0, 1)"></use>
            <use xlink:href="#SvgjsG2619" transform="translate(144, 360) scale(2)" fill="rgba(0, 0, 0, 1)"></use>
            <use xlink:href="#SvgjsG2624" transform="translate(144, 432) scale(2)" fill="rgba(0, 0, 0, 1)"></use>
            <use xlink:href="#SvgjsG2619" transform="translate(144, 504) scale(2)" fill="rgba(0, 0, 0, 1)"></use>
            <use xlink:href="#SvgjsG2625" transform="translate(216, 0) scale(2)" fill="rgba(0, 0, 0, 1)"></use>
            <use xlink:href="#SvgjsG2622" transform="translate(216, 72) scale(2)" fill="rgba(0, 0, 0, 1)"></use>
            <use xlink:href="#SvgjsG2619" transform="translate(216, 144) scale(2)" fill="rgba(0, 0, 0, 1)"></use>
            <use xlink:href="#SvgjsG2624" transform="translate(216, 216) scale(2)" fill="rgba(0, 0, 0, 1)"></use>
            <use xlink:href="#SvgjsG2622" transform="translate(216, 288) scale(2)" fill="rgba(0, 0, 0, 1)"></use>
            <use xlink:href="#SvgjsG2621" transform="translate(216, 360) scale(2)" fill="rgba(0, 0, 0, 1)"></use>
            <use xlink:href="#SvgjsG2619" transform="translate(216, 432) scale(2)" fill="rgba(0, 0, 0, 1)"></use>
            <use xlink:href="#SvgjsG2623" transform="translate(216, 504) scale(2)" fill="rgba(0, 0, 0, 1)"></use>
            <use xlink:href="#SvgjsG2624" transform="translate(288, 0) scale(2)" fill="rgba(0, 0, 0, 1)"></use>
            <use xlink:href="#SvgjsG2622" transform="translate(288, 72) scale(2)" fill="rgba(0, 0, 0, 1)"></use>
            <use xlink:href="#SvgjsG2621" transform="translate(288, 144) scale(2)" fill="rgba(0, 0, 0, 1)"></use>
            <use xlink:href="#SvgjsG2619" transform="translate(288, 216) scale(2)" fill="rgba(0, 0, 0, 1)"></use>
            <use xlink:href="#SvgjsG2622" transform="translate(288, 288) scale(2)" fill="rgba(0, 0, 0, 1)"></use>
            <use xlink:href="#SvgjsG2617" transform="translate(288, 360) scale(2)" fill="rgba(0, 0, 0, 1)"></use>
            <use xlink:href="#SvgjsG2623" transform="translate(288, 432) scale(2)" fill="rgba(0, 0, 0, 1)"></use>
            <use xlink:href="#SvgjsG2621" transform="translate(288, 504) scale(2)" fill="rgba(0, 0, 0, 1)"></use>
            <use xlink:href="#SvgjsG2623" transform="translate(360, 0) scale(2)" fill="rgba(0, 0, 0, 1)"></use>
            <use xlink:href="#SvgjsG2624" transform="translate(360, 72) scale(2)" fill="rgba(0, 0, 0, 1)"></use>
            <use xlink:href="#SvgjsG2618" transform="translate(360, 144) scale(2)" fill="rgba(0, 0, 0, 1)"></use>
            <use xlink:href="#SvgjsG2623" transform="translate(360, 216) scale(2)" fill="rgba(0, 0, 0, 1)"></use>
            <use xlink:href="#SvgjsG2620" transform="translate(360, 288) scale(2)" fill="rgba(0, 0, 0, 1)"></use>
            <use xlink:href="#SvgjsG2618" transform="translate(360, 360) scale(2)" fill="rgba(0, 0, 0, 1)"></use>
            <use xlink:href="#SvgjsG2622" transform="translate(360, 432) scale(2)" fill="rgba(0, 0, 0, 1)"></use>
            <use xlink:href="#SvgjsG2617" transform="translate(360, 504) scale(2)" fill="rgba(0, 0, 0, 1)"></use>
            <use xlink:href="#SvgjsG2618" transform="translate(432, 0) scale(2)" fill="rgba(0, 0, 0, 1)"></use>
            <use xlink:href="#SvgjsG2623" transform="translate(432, 72) scale(2)" fill="rgba(0, 0, 0, 1)"></use>
            <use xlink:href="#SvgjsG2617" transform="translate(432, 144) scale(2)" fill="rgba(0, 0, 0, 1)"></use>
            <use xlink:href="#SvgjsG2617" transform="translate(432, 216) scale(2)" fill="rgba(0, 0, 0, 1)"></use>
            <use xlink:href="#SvgjsG2618" transform="translate(432, 288) scale(2)" fill="rgba(0, 0, 0, 1)"></use>
            <use xlink:href="#SvgjsG2624" transform="translate(432, 360) scale(2)" fill="rgba(0, 0, 0, 1)"></use>
            <use xlink:href="#SvgjsG2617" transform="translate(432, 432) scale(2)" fill="rgba(0, 0, 0, 1)"></use>
            <use xlink:href="#SvgjsG2621" transform="translate(432, 504) scale(2)" fill="rgba(0, 0, 0, 1)"></use>
            <use xlink:href="#SvgjsG2624" transform="translate(504, 0) scale(2)" fill="rgba(0, 0, 0, 1)"></use>
            <use xlink:href="#SvgjsG2623" transform="translate(504, 72) scale(2)" fill="rgba(0, 0, 0, 1)"></use>
            <use xlink:href="#SvgjsG2617" transform="translate(504, 144) scale(2)" fill="rgba(0, 0, 0, 1)"></use>
            <use xlink:href="#SvgjsG2623" transform="translate(504, 216) scale(2)" fill="rgba(0, 0, 0, 1)"></use>
            <use xlink:href="#SvgjsG2624" transform="translate(504, 288) scale(2)" fill="rgba(0, 0, 0, 1)"></use>
            <use xlink:href="#SvgjsG2617" transform="translate(504, 360) scale(2)" fill="rgba(0, 0, 0, 1)"></use>
            <use xlink:href="#SvgjsG2622" transform="translate(504, 432) scale(2)" fill="rgba(0, 0, 0, 1)"></use>
            <use xlink:href="#SvgjsG2619" transform="translate(504, 504) scale(2)" fill="rgba(0, 0, 0, 1)"></use>
            <use xlink:href="#SvgjsG2618" transform="translate(576, 0) scale(2)" fill="rgba(0, 0, 0, 1)"></use>
            <use xlink:href="#SvgjsG2618" transform="translate(576, 72) scale(2)" fill="rgba(0, 0, 0, 1)"></use>
            <use xlink:href="#SvgjsG2621" transform="translate(576, 144) scale(2)" fill="rgba(0, 0, 0, 1)"></use>
            <use xlink:href="#SvgjsG2624" transform="translate(576, 216) scale(2)" fill="rgba(0, 0, 0, 1)"></use>
            <use xlink:href="#SvgjsG2619" transform="translate(576, 288) scale(2)" fill="rgba(0, 0, 0, 1)"></use>
            <use xlink:href="#SvgjsG2619" transform="translate(576, 360) scale(2)" fill="rgba(0, 0, 0, 1)"></use>
            <use xlink:href="#SvgjsG2623" transform="translate(576, 432) scale(2)" fill="rgba(0, 0, 0, 1)"></use>
            <use xlink:href="#SvgjsG2625" transform="translate(576, 504) scale(2)" fill="rgba(0, 0, 0, 1)"></use>
            <use xlink:href="#SvgjsG2622" transform="translate(648, 0) scale(2)" fill="rgba(0, 0, 0, 1)"></use>
            <use xlink:href="#SvgjsG2622" transform="translate(648, 72) scale(2)" fill="rgba(0, 0, 0, 1)"></use>
            <use xlink:href="#SvgjsG2618" transform="translate(648, 144) scale(2)" fill="rgba(0, 0, 0, 1)"></use>
            <use xlink:href="#SvgjsG2617" transform="translate(648, 216) scale(2)" fill="rgba(0, 0, 0, 1)"></use>
            <use xlink:href="#SvgjsG2624" transform="translate(648, 288) scale(2)" fill="rgba(0, 0, 0, 1)"></use>
            <use xlink:href="#SvgjsG2618" transform="translate(648, 360) scale(2)" fill="rgba(0, 0, 0, 1)"></use>
            <use xlink:href="#SvgjsG2622" transform="translate(648, 432) scale(2)" fill="rgba(0, 0, 0, 1)"></use>
            <use xlink:href="#SvgjsG2620" transform="translate(648, 504) scale(2)" fill="rgba(0, 0, 0, 1)"></use>
        </g>
    </defs>
</svg>