<?xml version="1.0" encoding="UTF-8" ?>
<!DOCTYPE svg PUBLIC "-//W3C//DTD SVG 1.1//EN" "http://www.w3.org/Graphics/SVG/1.1/DTD/svg11.dtd">
<svg width="300px" height="300px" viewBox="0 0 1024 1024" version="1.1" xmlns="http://www.w3.org/2000/svg">
<g id="#fe6079ff">
<path fill="#fe6079" opacity="1.00" d=" M 528.18 695.35 C 543.99 684.62 566.50 682.19 583.85 691.29 C 587.21 692.95 589.89 695.70 592.22 698.58 C 593.47 705.80 589.75 712.73 590.44 719.97 C 590.04 744.86 592.40 770.22 586.16 794.47 C 580.67 816.63 568.95 837.61 550.95 851.95 C 528.20 869.60 497.07 874.90 469.61 866.86 C 458.31 862.45 446.05 858.64 437.63 849.36 C 422.81 837.14 414.94 818.65 411.02 800.30 C 412.95 792.36 408.83 784.32 411.39 776.50 C 413.78 777.14 416.25 777.21 418.69 776.82 C 424.22 781.62 431.86 786.59 439.42 783.45 C 452.84 778.04 460.46 764.58 466.08 752.01 C 469.64 745.21 470.19 737.45 471.68 730.05 C 473.96 718.95 470.56 707.45 465.11 697.79 C 463.83 695.50 461.46 694.21 459.24 693.01 C 456.74 691.68 453.98 691.07 451.23 690.51 C 450.08 690.18 448.96 689.79 447.83 689.45 C 464.64 683.77 487.70 688.52 495.65 705.93 C 479.19 728.10 478.68 757.94 484.88 783.81 C 487.81 768.43 489.94 752.65 495.96 738.06 C 495.96 738.69 495.94 739.95 495.94 740.59 C 497.62 738.54 497.80 734.75 500.64 734.00 C 500.80 734.80 501.12 736.39 501.28 737.19 C 500.30 740.74 499.44 744.36 499.39 748.07 C 501.41 746.23 502.07 743.47 503.24 741.10 C 511.47 722.25 525.13 704.90 544.03 695.98 C 545.27 695.07 548.44 694.75 547.56 692.63 C 541.84 688.94 535.34 691.72 530.19 694.94 C 529.68 695.05 528.68 695.25 528.18 695.35 M 465.38 770.50 C 460.89 772.71 458.79 778.87 461.92 783.06 C 466.02 790.40 479.77 784.93 477.46 776.82 C 476.87 771.54 469.93 768.49 465.38 770.50 M 444.29 791.35 C 437.37 793.08 431.78 799.74 432.25 807.01 C 431.92 815.31 439.12 822.34 446.97 823.67 C 459.04 825.08 468.53 809.93 462.53 799.55 C 459.10 793.30 451.24 789.47 444.29 791.35 M 470.31 816.27 C 468.28 818.65 468.77 822.81 471.40 824.62 C 474.50 825.18 478.07 824.91 479.36 821.50 C 481.05 816.47 473.78 813.16 470.31 816.27 M 449.76 836.48 C 446.84 845.56 455.94 855.52 465.18 852.12 C 474.26 849.75 475.22 835.98 467.07 831.85 C 461.10 827.96 453.69 831.29 449.76 836.48 Z" />
</g>
<g id="#042838ff">
<path fill="#042838" opacity="1.00" d=" M 320.65 46.32 C 354.19 25.87 396.17 20.69 433.91 31.09 C 460.04 37.75 483.30 52.63 502.94 70.78 C 523.10 59.76 545.04 51.09 568.10 48.99 C 621.76 41.93 678.75 65.06 711.24 108.59 C 714.04 113.03 718.48 108.58 721.96 107.58 C 748.99 95.07 779.89 92.89 809.00 97.86 C 839.38 103.55 867.60 118.84 889.91 140.11 C 918.86 168.62 937.75 208.06 938.33 248.99 C 938.57 280.96 927.61 313.31 906.67 337.68 C 876.56 375.24 824.17 390.98 777.79 380.40 C 774.53 389.03 773.50 398.72 770.69 407.66 C 769.57 410.50 770.62 413.35 772.67 415.42 C 828.28 483.51 855.17 575.46 840.33 662.53 C 872.86 679.10 901.21 708.48 909.06 745.00 C 912.49 765.12 911.90 787.76 899.32 804.83 C 909.58 819.34 915.31 837.17 914.61 854.99 C 914.54 871.25 907.73 886.33 902.31 901.34 C 898.13 911.55 894.67 922.04 890.31 932.18 C 885.05 944.60 881.29 957.88 873.55 969.08 L 873.77 970.30 C 883.95 971.97 894.56 974.22 903.50 979.58 C 907.52 981.47 909.48 987.46 905.47 990.35 C 889.78 999.88 870.91 1000.64 853.25 1003.08 C 817.24 1006.42 780.61 1006.31 744.45 1004.30 C 724.46 1002.06 703.86 1001.17 684.68 994.22 C 681.00 993.02 677.93 990.58 675.53 987.60 C 675.52 986.19 675.53 984.80 675.56 983.42 C 678.44 979.77 682.59 977.51 686.94 976.10 C 699.48 971.17 712.90 969.39 726.11 967.20 C 725.25 964.73 722.47 964.06 720.65 962.51 C 717.83 960.53 714.86 956.83 711.06 958.87 C 682.17 963.15 653.12 966.34 623.97 967.81 C 616.23 969.68 608.07 967.35 600.35 969.36 C 589.54 970.17 578.54 968.51 567.86 970.50 C 536.29 970.52 504.71 970.59 473.14 970.49 C 462.17 968.34 450.81 970.47 439.75 969.09 C 395.62 966.53 351.24 963.93 307.90 953.94 C 296.55 950.84 284.07 948.37 275.54 939.61 C 275.44 937.54 275.43 935.47 275.53 933.42 C 279.31 928.80 284.98 926.57 290.43 924.59 C 311.60 916.84 333.92 913.99 355.99 910.55 C 370.43 909.30 384.68 906.56 399.19 906.45 C 399.28 905.94 399.45 904.92 399.54 904.41 C 372.94 892.89 347.96 877.72 325.02 860.04 C 293.80 834.96 267.32 804.05 247.14 769.46 C 235.99 776.64 221.08 779.96 208.59 774.39 C 202.10 771.57 197.88 765.24 196.22 758.54 C 178.95 758.01 161.61 752.13 148.98 740.03 C 132.56 724.14 123.57 702.66 113.06 682.80 C 100.59 658.79 95.50 629.26 106.56 603.78 C 108.12 600.28 111.08 596.70 109.20 592.68 C 103.56 578.62 101.22 562.67 105.76 547.97 C 110.14 528.26 129.17 512.98 149.39 513.22 C 149.97 509.84 149.02 506.49 148.38 503.20 C 143.49 481.09 139.71 458.76 135.42 436.54 C 108.78 425.33 87.05 403.43 76.36 376.52 C 68.44 357.74 65.61 337.37 62.55 317.39 C 58.20 293.43 57.70 267.73 67.94 245.12 C 76.02 224.55 93.17 206.78 115.14 201.64 C 139.53 194.97 166.32 204.61 183.50 222.51 C 201.17 239.94 210.97 263.73 216.53 287.56 C 221.08 308.12 226.89 328.76 226.43 350.00 C 226.28 378.30 214.45 406.40 193.65 425.74 C 199.23 455.97 206.34 486.49 212.17 516.90 C 226.33 466.71 251.46 419.27 286.79 380.73 C 304.62 361.81 324.11 344.38 345.17 329.11 C 347.87 315.98 350.82 302.91 353.63 289.80 C 342.86 284.56 330.59 281.46 320.63 274.28 C 280.98 250.15 254.56 204.67 255.62 158.00 C 255.93 112.79 281.97 69.29 320.65 46.32 M 319.53 86.56 C 305.45 99.82 295.41 117.25 290.74 136.01 C 280.75 177.02 299.21 223.13 335.10 245.53 C 345.65 252.33 357.51 257.24 369.88 259.51 C 395.86 264.30 422.48 258.59 446.77 249.19 C 446.71 249.78 446.58 250.97 446.51 251.56 C 426.65 259.66 405.26 263.91 383.78 263.70 C 380.08 283.43 375.97 303.08 372.27 322.81 C 377.19 322.16 382.10 321.40 386.94 320.32 C 426.06 315.42 465.73 316.03 504.88 320.40 C 557.97 326.82 610.85 337.07 661.39 354.82 C 663.38 355.56 665.35 356.48 667.52 356.66 L 667.56 356.93 C 682.67 362.27 697.72 367.98 711.95 375.39 C 724.23 381.47 736.55 387.57 748.00 395.15 C 753.80 378.40 757.46 360.90 762.29 343.82 C 745.90 335.60 730.37 325.63 717.13 312.84 C 738.20 327.79 760.76 342.72 786.60 347.72 C 815.13 354.97 846.90 348.39 869.79 329.75 C 898.89 307.15 911.57 267.38 904.44 231.71 C 900.67 203.13 883.76 177.46 862.38 158.66 C 857.51 154.77 852.87 150.35 847.13 147.78 C 838.99 141.69 829.66 137.21 819.99 134.14 C 789.15 122.94 751.85 124.08 724.36 142.88 C 727.97 147.82 729.60 154.80 726.48 160.39 C 723.65 166.40 716.31 169.45 709.99 167.65 C 706.82 165.77 703.32 163.81 701.81 160.26 C 692.26 124.21 660.79 96.70 625.75 86.14 C 586.34 72.50 540.09 80.62 507.31 106.31 C 501.86 110.24 497.73 116.40 490.98 118.23 C 482.52 120.44 473.20 112.81 474.09 104.00 C 473.50 99.84 476.45 96.64 478.02 93.09 C 457.58 71.67 428.45 59.00 398.97 57.51 C 370.17 56.55 340.34 66.17 319.53 86.56 M 90.28 243.30 C 83.98 254.52 80.05 267.11 79.20 279.97 C 78.52 296.48 81.95 312.77 84.51 328.99 C 86.82 339.25 87.53 350.28 92.60 359.65 C 95.22 375.06 105.83 388.39 116.87 399.14 C 126.51 409.12 139.15 415.32 152.02 420.00 C 155.90 426.38 154.19 435.79 157.22 442.03 C 156.99 446.39 158.42 450.64 158.98 454.94 C 165.01 487.28 171.10 519.60 177.14 551.92 C 179.11 551.93 181.10 551.87 183.03 551.42 C 184.71 551.24 186.40 551.08 188.09 550.90 C 191.67 550.76 195.25 550.65 198.84 550.60 C 191.57 505.04 179.53 460.25 171.30 414.84 C 188.15 404.39 200.64 387.14 204.37 367.56 C 208.90 348.09 205.41 328.06 201.27 308.86 C 194.74 280.49 186.46 249.76 162.50 230.90 L 162.09 231.19 C 151.57 222.46 137.64 216.89 123.85 219.30 C 109.67 221.45 97.20 230.88 90.28 243.30 M 363.68 357.75 C 296.12 403.25 246.32 478.03 238.93 560.05 C 242.30 563.00 245.38 566.24 248.19 569.73 C 251.51 576.20 254.87 582.75 256.21 589.99 C 259.41 602.62 264.70 617.26 256.20 628.99 C 267.26 642.21 268.78 660.55 270.50 677.03 C 271.25 688.75 263.90 701.36 252.18 704.44 C 254.44 720.04 262.88 733.74 270.73 747.10 C 293.06 783.79 321.40 817.43 356.63 842.35 C 373.69 854.62 392.21 864.67 411.11 873.78 C 440.54 887.63 472.69 894.96 504.98 897.95 C 560.27 901.38 617.31 891.90 666.63 866.06 C 662.21 856.88 661.48 845.65 666.70 836.63 C 670.75 828.83 678.83 824.70 685.55 819.58 C 707.50 803.39 727.73 782.80 755.01 775.98 C 759.29 774.33 765.55 775.70 767.67 770.65 C 783.88 748.67 794.45 723.19 802.17 697.16 C 815.42 701.72 827.54 709.12 837.90 718.53 C 844.59 725.75 850.18 734.32 852.45 744.01 C 853.60 749.84 853.35 756.62 849.31 761.36 C 849.83 761.72 850.85 762.45 851.37 762.81 C 849.23 764.44 847.42 766.43 845.80 768.56 C 828.68 757.73 804.45 756.82 788.79 770.86 C 800.35 770.82 813.65 772.55 821.79 781.68 C 797.07 786.83 770.89 787.34 747.83 798.58 C 725.54 809.23 709.41 828.92 688.03 840.99 C 684.31 843.14 680.32 847.59 682.94 852.05 C 684.28 863.74 697.48 870.70 708.27 867.22 C 721.44 862.81 731.57 852.81 741.88 843.96 C 747.83 839.37 744.73 831.26 744.55 824.94 C 744.80 824.81 745.31 824.54 745.56 824.40 L 745.81 824.64 C 744.82 828.61 746.84 832.71 748.53 836.26 C 749.89 840.67 753.20 844.36 754.34 848.89 C 744.99 861.87 734.62 874.71 728.55 889.62 C 721.92 903.07 716.46 919.22 721.99 933.99 C 725.46 944.76 737.18 952.16 748.41 950.37 C 747.31 936.81 752.06 923.26 761.25 913.27 C 765.94 907.12 773.00 903.22 777.15 896.64 C 777.49 896.65 778.18 896.67 778.52 896.67 C 776.09 903.09 774.25 909.77 772.45 916.40 C 767.99 928.56 764.45 942.31 768.97 955.01 C 773.21 967.00 787.72 975.61 799.95 969.93 C 793.70 957.64 796.48 942.27 806.24 932.64 C 810.11 928.56 814.57 924.94 817.70 920.21 C 817.84 920.81 818.14 921.99 818.29 922.59 C 815.38 933.13 813.22 944.30 814.87 955.23 C 816.74 966.88 829.84 974.30 840.93 970.88 C 854.10 968.06 860.63 954.78 865.22 943.42 C 874.28 920.28 883.93 897.31 891.67 873.68 C 899.74 848.94 891.96 819.66 871.62 803.18 C 879.50 797.26 887.54 790.11 889.80 780.06 C 893.22 763.85 890.65 746.33 882.97 731.69 L 881.85 731.52 C 873.76 712.83 857.77 697.68 839.99 687.97 C 831.03 681.78 821.03 677.18 810.72 673.73 C 809.63 673.10 807.73 672.65 808.10 671.01 C 815.11 626.07 813.96 579.29 800.34 535.65 C 790.36 502.09 775.13 469.53 752.18 442.83 C 742.44 430.71 730.17 420.53 716.07 413.90 C 691.10 399.85 663.98 390.25 636.94 381.07 C 630.79 378.96 624.56 376.83 618.10 375.91 C 595.69 369.39 572.83 364.00 549.81 360.08 C 488.64 349.40 424.72 342.80 363.68 357.75 M 131.31 541.29 C 125.30 547.71 123.50 556.82 123.34 565.34 C 123.05 569.93 124.68 574.37 124.92 578.93 C 133.89 568.52 145.55 560.46 158.73 556.39 C 158.19 552.29 157.24 548.26 156.72 544.17 L 156.36 544.26 C 156.16 540.53 154.97 536.95 154.35 533.29 C 146.00 532.22 136.95 534.83 131.31 541.29 M 190.78 568.23 C 167.26 570.22 142.14 580.95 130.22 602.15 C 119.62 616.19 118.19 635.41 122.79 652.00 C 126.17 667.26 134.88 680.69 140.76 694.85 C 139.01 688.42 138.30 681.42 140.36 674.98 C 142.31 696.35 151.60 718.75 170.03 730.98 C 176.87 735.78 185.22 737.85 193.45 738.46 C 192.49 731.28 190.95 724.20 189.63 717.09 C 185.44 717.63 181.53 719.35 177.35 719.95 C 176.69 716.12 175.71 711.68 178.21 708.28 C 194.87 691.79 219.08 685.62 242.01 687.31 C 252.67 687.26 253.05 674.42 250.62 666.85 C 248.12 657.36 247.85 641.75 234.99 640.92 C 231.53 640.69 228.04 640.50 224.57 640.83 C 219.60 637.82 213.23 640.30 207.69 639.07 C 212.47 637.92 217.15 636.41 222.00 635.58 C 218.44 628.49 212.09 623.47 206.07 618.57 C 216.58 618.77 227.17 619.76 237.64 619.52 C 244.50 615.91 240.88 606.97 239.62 601.14 C 236.94 589.11 232.10 574.93 219.00 570.96 C 210.15 567.16 200.19 567.51 190.78 568.23 M 213.50 708.00 C 211.72 708.37 209.94 708.75 208.17 709.18 C 208.33 711.82 208.62 714.45 208.97 717.07 L 209.57 717.16 C 210.40 728.08 213.20 739.07 214.96 749.99 C 215.29 754.66 218.98 758.47 223.88 757.50 C 225.61 757.24 227.32 756.86 228.95 756.22 C 234.14 754.31 238.48 749.43 239.49 744.03 C 237.63 731.32 235.01 718.65 231.76 706.23 C 225.96 705.75 219.12 705.83 213.50 708.00 M 691.21 889.46 C 680.07 896.78 666.73 900.35 655.66 907.37 C 669.20 908.65 682.78 909.26 696.29 910.82 C 698.06 911.42 701.14 912.44 701.48 909.68 C 702.35 901.31 706.93 894.02 708.89 885.97 C 702.81 884.73 696.30 885.64 691.21 889.46 Z" />
<path fill="#042838" opacity="1.00" d=" M 467.61 185.45 C 471.98 184.40 476.58 185.85 479.83 188.87 C 483.19 193.96 484.59 200.02 487.73 205.23 C 513.28 247.13 564.51 270.92 613.02 264.98 C 637.76 262.57 661.26 251.23 679.46 234.44 C 682.54 230.96 687.28 228.55 691.98 230.01 C 701.19 232.29 705.64 244.45 699.57 251.96 C 651.67 292.43 578.53 298.33 523.83 268.22 C 498.36 255.04 478.05 233.70 462.42 209.95 C 455.90 202.34 457.04 188.68 467.61 185.45 Z" />
<path fill="#042838" opacity="1.00" d=" M 374.51 377.88 C 399.01 372.63 425.63 380.08 444.05 396.99 C 449.19 401.53 455.54 407.25 454.45 414.83 C 453.98 420.69 448.92 425.72 443.05 426.08 C 437.87 426.73 433.40 423.44 429.57 420.41 C 414.46 408.41 393.71 402.74 374.86 408.03 C 363.19 411.03 353.24 418.45 345.11 427.12 C 340.08 432.49 330.45 431.94 326.31 425.80 C 322.69 420.68 323.08 413.57 326.44 408.43 C 338.08 392.91 355.20 381.18 374.51 377.88 Z" />
<path fill="#042838" opacity="1.00" d=" M 386.53 448.89 C 398.85 446.33 412.21 450.01 421.58 458.38 C 434.54 469.26 441.29 485.72 444.40 502.00 C 448.71 525.73 445.93 551.14 434.51 572.57 C 428.01 584.50 417.36 594.78 403.99 598.34 C 393.20 601.49 381.36 598.67 372.12 592.63 C 358.95 583.28 350.93 568.29 346.82 552.97 C 340.99 529.51 341.35 503.97 350.48 481.40 C 357.27 466.37 369.53 451.93 386.53 448.89 M 366.38 480.45 C 358.30 482.61 353.75 492.10 356.26 499.90 C 358.62 506.97 366.75 511.76 374.07 509.76 C 381.06 508.19 385.85 501.05 385.37 494.02 C 384.97 484.98 375.24 477.27 366.38 480.45 Z" />
<path fill="#042838" opacity="1.00" d=" M 649.45 474.56 C 656.59 471.99 664.12 466.73 671.89 470.09 C 682.07 473.39 684.12 489.24 674.29 494.29 C 651.41 505.04 627.40 515.02 607.90 531.43 C 635.00 533.40 661.98 540.66 685.46 554.53 C 692.29 558.57 694.73 569.07 689.10 575.09 C 684.82 580.49 676.83 580.98 671.06 577.82 C 647.58 566.63 621.88 560.56 595.97 558.94 C 587.91 557.91 578.41 559.12 572.11 552.87 C 565.22 546.05 566.41 534.45 572.41 527.45 C 592.04 502.46 620.50 486.43 649.45 474.56 Z" />
<path fill="#042838" opacity="1.00" d=" M 607.63 624.62 C 612.52 622.93 617.73 620.12 623.00 621.98 C 629.18 623.55 632.37 630.02 632.98 635.92 C 635.25 662.44 624.77 688.63 608.18 708.98 C 609.12 724.91 609.46 740.90 609.23 756.87 C 608.46 781.02 604.89 805.80 593.22 827.31 C 587.58 838.41 580.07 848.50 571.56 857.56 C 548.76 880.88 514.68 891.43 482.54 887.67 C 456.11 884.70 429.65 872.08 413.73 850.28 C 397.21 829.34 390.85 802.26 390.12 776.05 C 389.46 753.05 393.28 729.52 403.82 708.89 C 389.95 692.53 380.60 672.07 379.02 650.57 C 378.46 642.88 377.32 633.92 382.67 627.57 C 387.23 622.75 394.69 623.32 400.33 625.73 C 432.19 637.49 465.90 645.16 500.00 644.89 C 536.76 645.31 573.40 637.86 607.63 624.62 M 528.18 695.35 C 512.63 704.61 502.01 721.21 495.96 738.06 C 489.94 752.65 487.81 768.43 484.88 783.81 C 478.68 757.94 479.19 728.10 495.65 705.93 C 487.70 688.52 464.64 683.77 447.83 689.45 C 434.30 692.96 424.28 704.33 418.71 716.71 C 406.93 742.62 403.96 772.70 411.02 800.30 C 414.94 818.65 422.81 837.14 437.63 849.36 C 446.05 858.64 458.31 862.45 469.61 866.86 C 497.07 874.90 528.20 869.60 550.95 851.95 C 568.95 837.61 580.67 816.63 586.16 794.47 C 592.40 770.22 590.04 744.86 590.44 719.97 C 589.75 712.73 593.47 705.80 592.22 698.58 C 589.89 695.70 587.21 692.95 583.85 691.29 C 566.50 682.19 543.99 684.62 528.18 695.35 Z" />
</g>
<g id="#ffffffff">
<path fill="#ffffff" opacity="1.00" d=" M 319.53 86.56 C 340.34 66.17 370.17 56.55 398.97 57.51 C 428.45 59.00 457.58 71.67 478.02 93.09 C 476.45 96.64 473.50 99.84 474.09 104.00 C 473.20 112.81 482.52 120.44 490.98 118.23 C 497.73 116.40 501.86 110.24 507.31 106.31 C 540.09 80.62 586.34 72.50 625.75 86.14 C 658.84 102.63 683.52 136.11 688.31 172.89 C 689.40 180.56 688.35 188.29 688.82 195.99 C 693.89 192.74 698.44 188.75 703.63 185.67 C 710.08 182.21 708.40 173.70 709.99 167.65 C 716.31 169.45 723.65 166.40 726.48 160.39 C 729.60 154.80 727.97 147.82 724.36 142.88 C 751.85 124.08 789.15 122.94 819.99 134.14 C 836.94 152.35 850.11 176.40 848.50 201.98 C 849.55 227.51 832.23 253.59 806.95 259.87 C 787.83 265.02 766.65 260.69 750.37 249.65 C 731.41 238.38 720.58 218.40 709.13 200.36 C 706.97 197.58 703.32 193.97 699.66 196.63 C 674.56 212.63 647.15 225.67 617.80 231.54 C 597.98 234.73 577.05 234.94 558.07 227.71 C 532.68 218.97 510.04 202.69 493.29 181.71 C 489.64 176.74 484.53 173.11 481.02 168.02 C 474.75 162.86 472.67 154.31 466.06 149.45 C 463.43 152.59 461.38 156.14 458.98 159.44 C 442.40 182.30 414.53 197.40 386.01 196.31 C 364.09 196.53 342.64 187.06 326.64 172.34 C 315.29 162.74 308.56 149.05 302.99 135.58 C 299.43 138.68 298.19 143.48 295.04 146.93 C 292.39 143.92 290.30 140.17 290.74 136.01 C 295.41 117.25 305.45 99.82 319.53 86.56 Z" />
<path fill="#ffffff" opacity="1.00" d=" M 90.28 243.30 C 97.20 230.88 109.67 221.45 123.85 219.30 C 137.64 216.89 151.57 222.46 162.09 231.19 C 160.09 233.73 157.13 231.97 154.75 231.13 C 150.43 229.32 145.86 228.14 141.20 227.63 C 125.64 224.61 108.47 231.64 100.25 245.36 C 88.65 261.95 85.90 283.22 88.64 302.92 C 89.00 311.22 92.02 319.24 91.66 327.58 C 89.29 328.12 86.92 328.64 84.51 328.99 C 81.95 312.77 78.52 296.48 79.20 279.97 C 80.05 267.11 83.98 254.52 90.28 243.30 Z" />
<path fill="#ffffff" opacity="1.00" d=" M 118.69 240.73 C 126.00 236.04 136.60 235.52 143.21 241.72 C 144.38 244.54 144.50 247.79 143.63 250.71 C 139.94 254.43 134.37 255.21 130.10 258.06 C 118.25 267.08 113.11 281.99 111.12 296.22 C 109.96 301.26 105.82 305.30 100.38 304.66 C 97.11 297.91 98.52 290.21 98.18 282.99 C 98.30 266.95 104.63 249.59 118.69 240.73 Z" />
<path fill="#ffffff" opacity="1.00" d=" M 425.23 272.19 C 447.60 268.43 470.48 267.27 493.05 269.81 C 505.15 273.98 517.59 277.42 530.15 279.86 C 541.52 283.71 553.35 285.94 565.18 287.83 C 571.43 289.08 577.24 291.98 583.57 292.94 C 609.62 303.61 635.05 317.69 654.09 338.88 C 656.85 342.17 659.19 345.87 662.42 348.75 C 662.54 350.83 662.82 353.07 661.39 354.82 C 610.85 337.07 557.97 326.82 504.88 320.40 C 465.73 316.03 426.06 315.42 386.94 320.32 C 387.70 313.11 389.58 306.10 390.95 299.01 C 392.30 292.98 392.81 286.50 396.59 281.37 C 406.21 278.55 415.52 274.77 425.23 272.19 Z" />
<path fill="#ffffff" opacity="1.00" d=" M 111.36 314.47 C 119.09 312.37 125.90 322.03 121.71 328.68 C 119.24 333.67 111.32 334.35 107.84 330.18 C 102.75 326.06 104.43 315.61 111.36 314.47 Z" />
<path fill="#ffffff" opacity="1.00" d=" M 363.68 357.75 C 424.72 342.80 488.64 349.40 549.81 360.08 C 561.83 364.10 574.18 367.18 585.88 372.11 C 614.93 383.06 640.68 401.64 661.84 424.20 C 709.06 472.40 730.57 544.65 716.82 610.79 C 706.38 661.74 677.29 708.26 637.39 741.37 C 628.52 747.71 620.64 756.12 610.25 759.88 C 609.90 758.87 609.56 757.86 609.23 756.87 C 609.46 740.90 609.12 724.91 608.18 708.98 C 624.77 688.63 635.25 662.44 632.98 635.92 C 632.37 630.02 629.18 623.55 623.00 621.98 C 617.73 620.12 612.52 622.93 607.63 624.62 C 573.40 637.86 536.76 645.31 500.00 644.89 C 465.90 645.16 432.19 637.49 400.33 625.73 C 394.69 623.32 387.23 622.75 382.67 627.57 C 377.32 633.92 378.46 642.88 379.02 650.57 C 380.60 672.07 389.95 692.53 403.82 708.89 C 393.28 729.52 389.46 753.05 390.12 776.05 C 345.39 754.81 308.63 718.04 285.85 674.19 C 282.20 668.20 279.90 661.49 275.89 655.72 C 271.79 644.32 267.72 632.85 265.02 621.02 C 263.23 603.15 261.47 583.24 248.19 569.73 C 245.38 566.24 242.30 563.00 238.93 560.05 C 246.32 478.03 296.12 403.25 363.68 357.75 M 374.51 377.88 C 355.20 381.18 338.08 392.91 326.44 408.43 C 323.08 413.57 322.69 420.68 326.31 425.80 C 330.45 431.94 340.08 432.49 345.11 427.12 C 353.24 418.45 363.19 411.03 374.86 408.03 C 393.71 402.74 414.46 408.41 429.57 420.41 C 433.40 423.44 437.87 426.73 443.05 426.08 C 448.92 425.72 453.98 420.69 454.45 414.83 C 455.54 407.25 449.19 401.53 444.05 396.99 C 425.63 380.08 399.01 372.63 374.51 377.88 M 386.53 448.89 C 369.53 451.93 357.27 466.37 350.48 481.40 C 341.35 503.97 340.99 529.51 346.82 552.97 C 350.93 568.29 358.95 583.28 372.12 592.63 C 381.36 598.67 393.20 601.49 403.99 598.34 C 417.36 594.78 428.01 584.50 434.51 572.57 C 445.93 551.14 448.71 525.73 444.40 502.00 C 441.29 485.72 434.54 469.26 421.58 458.38 C 412.21 450.01 398.85 446.33 386.53 448.89 M 649.45 474.56 C 620.50 486.43 592.04 502.46 572.41 527.45 C 566.41 534.45 565.22 546.05 572.11 552.87 C 578.41 559.12 587.91 557.91 595.97 558.94 C 621.88 560.56 647.58 566.63 671.06 577.82 C 676.83 580.98 684.82 580.49 689.10 575.09 C 694.73 569.07 692.29 558.57 685.46 554.53 C 661.98 540.66 635.00 533.40 607.90 531.43 C 627.40 515.02 651.41 505.04 674.29 494.29 C 684.12 489.24 682.07 473.39 671.89 470.09 C 664.12 466.73 656.59 471.99 649.45 474.56 M 324.39 653.47 C 316.51 654.57 306.05 660.53 309.10 670.03 C 312.60 679.88 324.71 682.32 334.00 680.90 C 340.85 680.36 348.41 676.66 350.48 669.64 C 352.25 663.40 347.46 657.10 341.63 655.31 C 336.25 652.77 330.17 652.96 324.39 653.47 Z" />
<path fill="#ffffff" opacity="1.00" d=" M 157.22 442.03 C 157.27 441.60 157.36 440.74 157.40 440.31 C 158.50 442.79 159.32 445.77 161.98 447.05 C 170.04 479.24 175.79 511.96 182.36 544.47 C 182.67 546.77 182.83 549.09 183.03 551.42 C 181.10 551.87 179.11 551.93 177.14 551.92 C 171.10 519.60 165.01 487.28 158.98 454.94 C 158.42 450.64 156.99 446.39 157.22 442.03 Z" />
<path fill="#ffffff" opacity="1.00" d=" M 366.38 480.45 C 375.24 477.27 384.97 484.98 385.37 494.02 C 385.85 501.05 381.06 508.19 374.07 509.76 C 366.75 511.76 358.62 506.97 356.26 499.90 C 353.75 492.10 358.30 482.61 366.38 480.45 Z" />
<path fill="#ffffff" opacity="1.00" d=" M 131.31 541.29 C 136.95 534.83 146.00 532.22 154.35 533.29 C 154.97 536.95 156.16 540.53 156.36 544.26 C 148.24 546.23 139.48 548.14 133.73 554.77 C 130.13 558.20 128.87 564.40 123.34 565.34 C 123.50 556.82 125.30 547.71 131.31 541.29 Z" />
<path fill="#ffffff" opacity="1.00" d=" M 190.78 568.23 C 200.19 567.51 210.15 567.16 219.00 570.96 C 223.07 576.09 225.02 582.43 227.29 588.47 C 229.03 593.32 231.37 598.23 230.76 603.53 C 212.19 604.17 193.12 607.22 176.91 616.80 C 174.24 618.56 170.53 619.47 169.08 622.56 C 180.68 626.74 192.76 629.88 203.85 635.34 C 203.13 636.32 202.42 637.28 201.73 638.29 C 194.24 640.49 187.99 645.39 181.13 648.94 C 194.96 643.42 209.93 642.31 224.57 640.83 C 228.04 640.50 231.53 640.69 234.99 640.92 C 238.66 652.82 241.75 665.06 242.70 677.50 C 231.90 678.45 220.88 678.78 210.57 682.49 C 202.84 684.57 196.01 688.94 188.33 691.13 C 176.69 694.05 163.99 688.49 156.88 679.10 C 150.48 670.86 148.57 660.32 145.55 650.58 C 141.48 634.09 132.97 618.98 130.22 602.15 C 142.14 580.95 167.26 570.22 190.78 568.23 Z" />
<path fill="#ffffff" opacity="1.00" d=" M 806.43 684.50 C 807.50 680.91 806.47 675.18 810.72 673.73 C 821.03 677.18 831.03 681.78 839.99 687.97 C 851.86 700.07 864.85 712.57 869.75 729.35 C 871.95 734.95 873.85 743.20 867.98 747.22 C 865.97 745.67 864.78 743.43 863.92 741.11 C 859.40 729.64 852.70 718.79 843.35 710.64 C 832.75 699.81 820.42 690.46 806.43 684.50 Z" />
<path fill="#ffffff" opacity="1.00" d=" M 417.24 729.20 C 421.44 711.92 433.64 695.63 451.23 690.51 C 453.98 691.07 456.74 691.68 459.24 693.01 C 440.76 699.60 427.66 716.43 423.08 735.17 C 421.12 740.64 421.93 747.24 418.00 751.87 C 414.77 744.78 415.54 736.59 417.24 729.20 Z" />
<path fill="#ffffff" opacity="1.00" d=" M 530.19 694.94 C 535.34 691.72 541.84 688.94 547.56 692.63 C 548.44 694.75 545.27 695.07 544.03 695.98 C 525.13 704.90 511.47 722.25 503.24 741.10 C 502.07 743.47 501.41 746.23 499.39 748.07 C 499.44 744.36 500.30 740.74 501.28 737.19 C 504.95 726.17 509.72 715.25 517.53 706.50 C 521.43 702.31 526.02 698.86 530.19 694.94 Z" />
<path fill="#ffffff" opacity="1.00" d=" M 209.57 717.16 C 212.06 717.19 214.19 718.44 215.93 720.13 C 218.24 732.64 220.77 745.15 223.88 757.50 C 218.98 758.47 215.29 754.66 214.96 749.99 C 213.20 739.07 210.40 728.08 209.57 717.16 Z" />
<path fill="#ffffff" opacity="1.00" d=" M 788.79 770.86 C 804.45 756.82 828.68 757.73 845.80 768.56 C 857.35 775.97 867.12 787.23 869.97 800.93 C 869.94 801.34 869.87 802.18 869.83 802.60 C 865.24 800.32 861.87 796.30 857.39 793.87 C 860.33 799.68 864.80 804.59 867.44 810.58 C 875.89 826.52 875.71 845.19 874.30 862.71 C 870.90 881.51 864.34 899.90 853.90 915.97 C 846.57 926.75 831.69 931.45 819.58 926.38 C 819.19 925.36 818.84 924.35 818.52 923.35 C 819.02 918.15 820.40 913.10 821.98 908.15 C 817.68 912.59 813.00 916.63 808.14 920.43 C 801.10 924.84 792.32 927.03 784.18 924.78 C 779.30 923.58 776.09 919.51 772.45 916.40 C 774.25 909.77 776.09 903.09 778.52 896.67 C 780.73 892.62 782.90 888.49 784.10 884.01 C 774.60 890.63 767.45 900.38 757.18 906.05 C 745.11 908.84 731.58 902.15 728.55 889.62 C 734.62 874.71 744.99 861.87 754.34 848.89 C 753.20 844.36 749.89 840.67 748.53 836.26 C 748.77 832.27 749.74 827.24 745.81 824.64 L 745.56 824.40 C 745.31 824.54 744.80 824.81 744.55 824.94 C 739.17 827.89 735.69 833.17 731.12 837.12 C 722.16 845.27 712.06 853.37 699.83 855.55 C 693.91 856.75 688.08 854.86 682.94 852.05 C 680.32 847.59 684.31 843.14 688.03 840.99 C 709.41 828.92 725.54 809.23 747.83 798.58 C 770.89 787.34 797.07 786.83 821.79 781.68 C 813.65 772.55 800.35 770.82 788.79 770.86 Z" />
<path fill="#ffffff" opacity="1.00" d=" M 465.38 770.50 C 469.93 768.49 476.87 771.54 477.46 776.82 C 479.77 784.93 466.02 790.40 461.92 783.06 C 458.79 778.87 460.89 772.71 465.38 770.50 Z" />
<path fill="#ffffff" opacity="1.00" d=" M 444.29 791.35 C 451.24 789.47 459.10 793.30 462.53 799.55 C 468.53 809.93 459.04 825.08 446.97 823.67 C 439.12 822.34 431.92 815.31 432.25 807.01 C 431.78 799.74 437.37 793.08 444.29 791.35 Z" />
<path fill="#ffffff" opacity="1.00" d=" M 470.31 816.27 C 473.78 813.16 481.05 816.47 479.36 821.50 C 478.07 824.91 474.50 825.18 471.40 824.62 C 468.77 822.81 468.28 818.65 470.31 816.27 Z" />
<path fill="#ffffff" opacity="1.00" d=" M 449.76 836.48 C 453.69 831.29 461.10 827.96 467.07 831.85 C 475.22 835.98 474.26 849.75 465.18 852.12 C 455.94 855.52 446.84 845.56 449.76 836.48 Z" />
</g>
<g id="#9fdffbff">
<path fill="#9fdffb" opacity="1.00" d=" M 625.75 86.14 C 660.79 96.70 692.26 124.21 701.81 160.26 C 703.32 163.81 706.82 165.77 709.99 167.65 C 708.40 173.70 710.08 182.21 703.63 185.67 C 698.44 188.75 693.89 192.74 688.82 195.99 C 688.35 188.29 689.40 180.56 688.31 172.89 C 683.52 136.11 658.84 102.63 625.75 86.14 Z" />
<path fill="#9fdffb" opacity="1.00" d=" M 819.99 134.14 C 829.66 137.21 838.99 141.69 847.13 147.78 C 858.14 165.36 865.81 185.96 864.42 206.99 C 865.92 229.82 857.01 252.31 843.23 270.22 C 828.79 289.43 806.10 302.49 782.00 304.18 C 759.44 304.16 737.28 294.60 721.47 278.55 C 712.73 270.96 705.99 261.52 699.57 251.96 C 705.64 244.45 701.19 232.29 691.98 230.01 C 687.28 228.55 682.54 230.96 679.46 234.44 C 661.26 251.23 637.76 262.57 613.02 264.98 C 564.51 270.92 513.28 247.13 487.73 205.23 C 484.59 200.02 483.19 193.96 479.83 188.87 C 482.30 187.32 484.84 185.74 487.76 185.25 C 504.61 204.45 522.84 223.93 546.96 233.89 C 567.39 243.86 590.75 245.01 613.02 242.99 C 648.20 237.94 680.64 221.02 709.13 200.36 C 720.58 218.40 731.41 238.38 750.37 249.65 C 766.65 260.69 787.83 265.02 806.95 259.87 C 832.23 253.59 849.55 227.51 848.50 201.98 C 850.11 176.40 836.94 152.35 819.99 134.14 Z" />
<path fill="#9fdffb" opacity="1.00" d=" M 335.10 245.53 C 299.21 223.13 280.75 177.02 290.74 136.01 C 290.30 140.17 292.39 143.92 295.04 146.93 C 298.19 143.48 299.43 138.68 302.99 135.58 C 308.56 149.05 315.29 162.74 326.64 172.34 C 342.64 187.06 364.09 196.53 386.01 196.31 C 414.53 197.40 442.40 182.30 458.98 159.44 C 463.70 163.49 464.11 170.07 466.66 175.39 C 467.70 178.43 470.19 182.59 467.61 185.45 C 457.04 188.68 455.90 202.34 462.42 209.95 C 449.36 221.03 434.00 229.49 417.28 233.43 C 391.06 239.07 362.58 232.91 340.88 217.22 C 337.38 215.05 333.16 214.80 329.19 214.27 C 329.75 215.46 330.05 216.75 330.63 217.93 C 328.96 219.28 327.54 220.90 326.21 222.58 C 325.94 221.47 325.68 220.37 325.43 219.26 C 323.75 218.72 322.06 218.98 320.44 219.57 C 320.38 220.46 320.32 221.35 320.26 222.24 C 321.39 222.71 322.53 223.18 323.67 223.66 C 324.37 226.56 324.08 229.57 324.57 232.49 C 326.99 236.67 331.59 238.88 335.90 240.62 C 337.02 239.71 338.15 238.81 339.31 237.93 C 341.92 240.87 337.49 244.23 335.10 245.53 Z" />
<path fill="#9fdffb" opacity="1.00" d=" M 100.25 245.36 C 108.47 231.64 125.64 224.61 141.20 227.63 C 137.07 227.69 132.95 227.92 128.83 228.23 C 134.59 231.36 140.83 233.78 145.66 238.36 C 157.99 252.55 166.25 270.49 167.74 289.35 C 172.10 321.85 155.24 358.07 124.44 371.45 C 121.60 372.83 118.14 372.34 115.85 370.17 C 111.36 366.02 106.51 362.29 101.92 358.24 C 101.81 365.52 107.73 371.70 106.18 379.08 C 99.98 373.92 97.59 365.80 92.60 359.65 C 87.53 350.28 86.82 339.25 84.51 328.99 C 86.92 328.64 89.29 328.12 91.66 327.58 C 92.02 319.24 89.00 311.22 88.64 302.92 C 85.90 283.22 88.65 261.95 100.25 245.36 M 118.69 240.73 C 104.63 249.59 98.30 266.95 98.18 282.99 C 98.52 290.21 97.11 297.91 100.38 304.66 C 105.82 305.30 109.96 301.26 111.12 296.22 C 113.11 281.99 118.25 267.08 130.10 258.06 C 134.37 255.21 139.94 254.43 143.63 250.71 C 144.50 247.79 144.38 244.54 143.21 241.72 C 136.60 235.52 126.00 236.04 118.69 240.73 M 111.36 314.47 C 104.43 315.61 102.75 326.06 107.84 330.18 C 111.32 334.35 119.24 333.67 121.71 328.68 C 125.90 322.03 119.09 312.37 111.36 314.47 Z" />
<path fill="#9fdffb" opacity="1.00" d=" M 904.44 231.71 C 911.57 267.38 898.89 307.15 869.79 329.75 C 846.90 348.39 815.13 354.97 786.60 347.72 C 817.92 348.37 850.10 336.80 871.71 313.66 C 878.88 305.32 886.44 296.99 890.81 286.75 C 894.48 278.22 900.09 269.95 899.91 260.32 C 899.90 257.16 903.52 255.28 903.22 252.03 C 903.42 245.24 903.17 238.41 904.44 231.71 Z" />
<path fill="#9fdffb" opacity="1.00" d=" M 493.05 269.81 C 505.74 270.64 520.80 269.52 530.15 279.86 C 517.59 277.42 505.15 273.98 493.05 269.81 Z" />
<path fill="#9fdffb" opacity="1.00" d=" M 400.94 272.86 C 409.05 272.89 417.13 271.84 425.23 272.19 C 415.52 274.77 406.21 278.55 396.59 281.37 C 396.77 278.29 396.70 273.00 400.94 272.86 Z" />
<path fill="#9fdffb" opacity="1.00" d=" M 583.57 292.94 C 596.11 291.31 608.56 295.41 620.98 296.80 C 656.76 303.29 690.99 318.10 720.14 339.85 C 721.64 341.13 724.25 342.56 723.15 344.94 C 719.61 355.14 717.15 365.84 711.95 375.39 C 697.72 367.98 682.67 362.27 667.56 356.93 L 667.52 356.66 C 667.43 353.24 665.89 349.85 662.42 348.75 C 659.19 345.87 656.85 342.17 654.09 338.88 C 635.05 317.69 609.62 303.61 583.57 292.94 Z" />
<path fill="#9fdffb" opacity="1.00" d=" M 549.81 360.08 C 572.83 364.00 595.69 369.39 618.10 375.91 C 627.92 382.55 640.02 383.96 650.97 387.93 C 659.26 390.90 665.61 397.23 672.37 402.61 C 683.49 411.38 693.53 421.51 702.49 432.48 C 738.78 473.87 763.26 526.63 766.02 582.01 C 767.36 606.59 763.76 631.26 756.95 654.86 C 732.09 731.31 672.94 796.11 598.40 826.55 C 596.78 827.38 594.99 827.58 593.22 827.31 C 604.89 805.80 608.46 781.02 609.23 756.87 C 609.56 757.86 609.90 758.87 610.25 759.88 C 620.64 756.12 628.52 747.71 637.39 741.37 C 677.29 708.26 706.38 661.74 716.82 610.79 C 730.57 544.65 709.06 472.40 661.84 424.20 C 640.68 401.64 614.93 383.06 585.88 372.11 C 574.18 367.18 561.83 364.10 549.81 360.08 Z" />
<path fill="#9fdffb" opacity="1.00" d=" M 161.98 447.05 C 163.68 447.27 165.39 447.46 167.09 447.70 C 171.23 464.98 173.69 482.61 177.91 499.88 C 180.41 517.07 185.36 533.79 188.09 550.90 C 186.40 551.08 184.71 551.24 183.03 551.42 C 182.83 549.09 182.67 546.77 182.36 544.47 C 175.79 511.96 170.04 479.24 161.98 447.05 Z" />
<path fill="#9fdffb" opacity="1.00" d=" M 156.36 544.26 L 156.72 544.17 C 157.24 548.26 158.19 552.29 158.73 556.39 C 145.55 560.46 133.89 568.52 124.92 578.93 C 124.68 574.37 123.05 569.93 123.34 565.34 C 128.87 564.40 130.13 558.20 133.73 554.77 C 139.48 548.14 148.24 546.23 156.36 544.26 Z" />
<path fill="#9fdffb" opacity="1.00" d=" M 219.00 570.96 C 232.10 574.93 236.94 589.11 239.62 601.14 C 240.88 606.97 244.50 615.91 237.64 619.52 C 227.17 619.76 216.58 618.77 206.07 618.57 C 212.09 623.47 218.44 628.49 222.00 635.58 C 217.15 636.41 212.47 637.92 207.69 639.07 C 205.66 639.23 203.49 639.57 201.73 638.29 C 202.42 637.28 203.13 636.32 203.85 635.34 C 192.76 629.88 180.68 626.74 169.08 622.56 C 170.53 619.47 174.24 618.56 176.91 616.80 C 193.12 607.22 212.19 604.17 230.76 603.53 C 231.37 598.23 229.03 593.32 227.29 588.47 C 225.02 582.43 223.07 576.09 219.00 570.96 Z" />
<path fill="#9fdffb" opacity="1.00" d=" M 122.79 652.00 C 118.19 635.41 119.62 616.19 130.22 602.15 C 132.97 618.98 141.48 634.09 145.55 650.58 C 148.57 660.32 150.48 670.86 156.88 679.10 C 163.99 688.49 176.69 694.05 188.33 691.13 C 196.01 688.94 202.84 684.57 210.57 682.49 C 220.88 678.78 231.90 678.45 242.70 677.50 C 241.75 665.06 238.66 652.82 234.99 640.92 C 247.85 641.75 248.12 657.36 250.62 666.85 C 253.05 674.42 252.67 687.26 242.01 687.31 C 219.08 685.62 194.87 691.79 178.21 708.28 C 175.71 711.68 176.69 716.12 177.35 719.95 C 181.53 719.35 185.44 717.63 189.63 717.09 C 190.95 724.20 192.49 731.28 193.45 738.46 C 185.22 737.85 176.87 735.78 170.03 730.98 C 151.60 718.75 142.31 696.35 140.36 674.98 C 138.30 681.42 139.01 688.42 140.76 694.85 C 134.88 680.69 126.17 667.26 122.79 652.00 Z" />
<path fill="#9fdffb" opacity="1.00" d=" M 324.39 653.47 C 330.17 652.96 336.25 652.77 341.63 655.31 C 347.46 657.10 352.25 663.40 350.48 669.64 C 348.41 676.66 340.85 680.36 334.00 680.90 C 324.71 682.32 312.60 679.88 309.10 670.03 C 306.05 660.53 316.51 654.57 324.39 653.47 Z" />
<path fill="#9fdffb" opacity="1.00" d=" M 275.89 655.72 C 279.90 661.49 282.20 668.20 285.85 674.19 C 308.63 718.04 345.39 754.81 390.12 776.05 C 390.85 802.26 397.21 829.34 413.73 850.28 C 410.60 852.23 407.12 849.98 404.11 848.87 C 385.78 840.36 367.14 832.16 350.37 820.74 C 338.49 813.24 328.17 803.62 318.05 793.95 C 295.81 771.11 275.18 745.59 262.89 715.97 C 271.62 706.90 278.21 694.99 277.77 681.99 C 278.52 673.11 274.71 664.57 275.89 655.72 Z" />
<path fill="#9fdffb" opacity="1.00" d=" M 839.99 687.97 C 857.77 697.68 873.76 712.83 881.85 731.52 C 883.22 742.54 885.88 754.09 881.94 764.90 C 880.01 771.20 873.88 775.95 867.39 776.44 C 862.26 771.71 857.94 765.78 851.37 762.81 C 850.85 762.45 849.83 761.72 849.31 761.36 C 853.35 756.62 853.60 749.84 852.45 744.01 C 850.18 734.32 844.59 725.75 837.90 718.53 C 839.66 715.86 841.38 713.16 843.35 710.64 C 852.70 718.79 859.40 729.64 863.92 741.11 C 864.78 743.43 865.97 745.67 867.98 747.22 C 873.85 743.20 871.95 734.95 869.75 729.35 C 864.85 712.57 851.86 700.07 839.99 687.97 Z" />
<path fill="#9fdffb" opacity="1.00" d=" M 215.78 719.32 C 217.90 719.33 220.01 719.50 222.12 719.72 C 224.19 731.92 228.11 743.83 228.95 756.22 C 227.32 756.86 225.61 757.24 223.88 757.50 C 220.77 745.15 218.24 732.64 215.93 720.13 L 215.78 719.32 Z" />
<path fill="#9fdffb" opacity="1.00" d=" M 857.39 793.87 C 861.87 796.30 865.24 800.32 869.83 802.60 C 869.87 802.18 869.94 801.34 869.97 800.93 C 870.49 801.68 871.04 802.43 871.62 803.18 C 891.96 819.66 899.74 848.94 891.67 873.68 C 883.93 897.31 874.28 920.28 865.22 943.42 C 860.63 954.78 854.10 968.06 840.93 970.88 C 829.84 974.30 816.74 966.88 814.87 955.23 C 813.22 944.30 815.38 933.13 818.29 922.59 L 818.52 923.35 C 818.84 924.35 819.19 925.36 819.58 926.38 C 831.69 931.45 846.57 926.75 853.90 915.97 C 864.34 899.90 870.90 881.51 874.30 862.71 C 875.71 845.19 875.89 826.52 867.44 810.58 C 864.80 804.59 860.33 799.68 857.39 793.87 Z" />
<path fill="#9fdffb" opacity="1.00" d=" M 731.12 837.12 C 735.69 833.17 739.17 827.89 744.55 824.94 C 744.73 831.26 747.83 839.37 741.88 843.96 C 731.57 852.81 721.44 862.81 708.27 867.22 C 697.48 870.70 684.28 863.74 682.94 852.05 C 688.08 854.86 693.91 856.75 699.83 855.55 C 712.06 853.37 722.16 845.27 731.12 837.12 Z" />
<path fill="#9fdffb" opacity="1.00" d=" M 757.18 906.05 C 767.45 900.38 774.60 890.63 784.10 884.01 C 782.90 888.49 780.73 892.62 778.52 896.67 C 778.18 896.67 777.49 896.65 777.15 896.64 C 773.00 903.22 765.94 907.12 761.25 913.27 C 752.06 923.26 747.31 936.81 748.41 950.37 C 737.18 952.16 725.46 944.76 721.99 933.99 C 716.46 919.22 721.92 903.07 728.55 889.62 C 731.58 902.15 745.11 908.84 757.18 906.05 Z" />
<path fill="#9fdffb" opacity="1.00" d=" M 768.97 955.01 C 764.45 942.31 767.99 928.56 772.45 916.40 C 776.09 919.51 779.30 923.58 784.18 924.78 C 792.32 927.03 801.10 924.84 808.14 920.43 C 811.49 923.79 808.87 928.83 804.46 929.17 C 805.07 930.32 805.65 931.45 806.24 932.64 C 796.48 942.27 793.70 957.64 799.95 969.93 C 787.72 975.61 773.21 967.00 768.97 955.01 Z" />
</g>
<g id="#59a9ceff">
<path fill="#59a9ce" opacity="1.00" d=" M 847.13 147.78 C 852.87 150.35 857.51 154.77 862.38 158.66 C 883.76 177.46 900.67 203.13 904.44 231.71 C 903.17 238.41 903.42 245.24 903.22 252.03 C 903.52 255.28 899.90 257.16 899.91 260.32 C 900.09 269.95 894.48 278.22 890.81 286.75 C 886.44 296.99 878.88 305.32 871.71 313.66 C 850.10 336.80 817.92 348.37 786.60 347.72 C 760.76 342.72 738.20 327.79 717.13 312.84 C 730.37 325.63 745.90 335.60 762.29 343.82 C 757.46 360.90 753.80 378.40 748.00 395.15 C 736.55 387.57 724.23 381.47 711.95 375.39 C 717.15 365.84 719.61 355.14 723.15 344.94 C 724.25 342.56 721.64 341.13 720.14 339.85 C 690.99 318.10 656.76 303.29 620.98 296.80 C 608.56 295.41 596.11 291.31 583.57 292.94 C 577.24 291.98 571.43 289.08 565.18 287.83 C 553.35 285.94 541.52 283.71 530.15 279.86 C 520.80 269.52 505.74 270.64 493.05 269.81 C 470.48 267.27 447.60 268.43 425.23 272.19 C 417.13 271.84 409.05 272.89 400.94 272.86 C 396.70 273.00 396.77 278.29 396.59 281.37 C 392.81 286.50 392.30 292.98 390.95 299.01 C 389.58 306.10 387.70 313.11 386.94 320.32 C 382.10 321.40 377.19 322.16 372.27 322.81 C 375.97 303.08 380.08 283.43 383.78 263.70 C 405.26 263.91 426.65 259.66 446.51 251.56 C 446.58 250.97 446.71 249.78 446.77 249.19 C 422.48 258.59 395.86 264.30 369.88 259.51 C 357.51 257.24 345.65 252.33 335.10 245.53 C 337.49 244.23 341.92 240.87 339.31 237.93 C 338.15 238.81 337.02 239.71 335.90 240.62 C 331.59 238.88 326.99 236.67 324.57 232.49 C 324.08 229.57 324.37 226.56 323.67 223.66 C 322.53 223.18 321.39 222.71 320.26 222.24 C 320.32 221.35 320.38 220.46 320.44 219.57 C 322.06 218.98 323.75 218.72 325.43 219.26 C 325.68 220.37 325.94 221.47 326.21 222.58 C 327.54 220.90 328.96 219.28 330.63 217.93 C 330.05 216.75 329.75 215.46 329.19 214.27 C 333.16 214.80 337.38 215.05 340.88 217.22 C 362.58 232.91 391.06 239.07 417.28 233.43 C 434.00 229.49 449.36 221.03 462.42 209.95 C 478.05 233.70 498.36 255.04 523.83 268.22 C 578.53 298.33 651.67 292.43 699.57 251.96 C 705.99 261.52 712.73 270.96 721.47 278.55 C 737.28 294.60 759.44 304.16 782.00 304.18 C 806.10 302.49 828.79 289.43 843.23 270.22 C 857.01 252.31 865.92 229.82 864.42 206.99 C 865.81 185.96 858.14 165.36 847.13 147.78 Z" />
<path fill="#59a9ce" opacity="1.00" d=" M 128.83 228.23 C 132.95 227.92 137.07 227.69 141.20 227.63 C 145.86 228.14 150.43 229.32 154.75 231.13 C 157.13 231.97 160.09 233.73 162.09 231.19 L 162.50 230.90 C 186.46 249.76 194.74 280.49 201.27 308.86 C 205.41 328.06 208.90 348.09 204.37 367.56 C 200.64 387.14 188.15 404.39 171.30 414.84 C 179.53 460.25 191.57 505.04 198.84 550.60 C 195.25 550.65 191.67 550.76 188.09 550.90 C 185.36 533.79 180.41 517.07 177.91 499.88 C 173.69 482.61 171.23 464.98 167.09 447.70 C 165.39 447.46 163.68 447.27 161.98 447.05 C 159.32 445.77 158.50 442.79 157.40 440.31 C 157.36 440.74 157.27 441.60 157.22 442.03 C 154.19 435.79 155.90 426.38 152.02 420.00 C 139.15 415.32 126.51 409.12 116.87 399.14 C 105.83 388.39 95.22 375.06 92.60 359.65 C 97.59 365.80 99.98 373.92 106.18 379.08 C 107.73 371.70 101.81 365.52 101.92 358.24 C 106.51 362.29 111.36 366.02 115.85 370.17 C 118.14 372.34 121.60 372.83 124.44 371.45 C 155.24 358.07 172.10 321.85 167.74 289.35 C 166.25 270.49 157.99 252.55 145.66 238.36 C 140.83 233.78 134.59 231.36 128.83 228.23 Z" />
<path fill="#59a9ce" opacity="1.00" d=" M 618.10 375.91 C 624.56 376.83 630.79 378.96 636.94 381.07 C 663.98 390.25 691.10 399.85 716.07 413.90 C 730.17 420.53 742.44 430.71 752.18 442.83 C 775.13 469.53 790.36 502.09 800.34 535.65 C 813.96 579.29 815.11 626.07 808.10 671.01 C 807.73 672.65 809.63 673.10 810.72 673.73 C 806.47 675.18 807.50 680.91 806.43 684.50 C 820.42 690.46 832.75 699.81 843.35 710.64 C 841.38 713.16 839.66 715.86 837.90 718.53 C 827.54 709.12 815.42 701.72 802.17 697.16 C 794.45 723.19 783.88 748.67 767.67 770.65 C 765.55 775.70 759.29 774.33 755.01 775.98 C 727.73 782.80 707.50 803.39 685.55 819.58 C 678.83 824.70 670.75 828.83 666.70 836.63 C 661.48 845.65 662.21 856.88 666.63 866.06 C 617.31 891.90 560.27 901.38 504.98 897.95 C 472.69 894.96 440.54 887.63 411.11 873.78 C 392.21 864.67 373.69 854.62 356.63 842.35 C 321.40 817.43 293.06 783.79 270.73 747.10 C 262.88 733.74 254.44 720.04 252.18 704.44 C 263.90 701.36 271.25 688.75 270.50 677.03 C 268.78 660.55 267.26 642.21 256.20 628.99 C 264.70 617.26 259.41 602.62 256.21 589.99 C 254.87 582.75 251.51 576.20 248.19 569.73 C 261.47 583.24 263.23 603.15 265.02 621.02 C 267.72 632.85 271.79 644.32 275.89 655.72 C 274.71 664.57 278.52 673.11 277.77 681.99 C 278.21 694.99 271.62 706.90 262.89 715.97 C 275.18 745.59 295.81 771.11 318.05 793.95 C 328.17 803.62 338.49 813.24 350.37 820.74 C 367.14 832.16 385.78 840.36 404.11 848.87 C 407.12 849.98 410.60 852.23 413.73 850.28 C 429.65 872.08 456.11 884.70 482.54 887.67 C 514.68 891.43 548.76 880.88 571.56 857.56 C 580.07 848.50 587.58 838.41 593.22 827.31 C 594.99 827.58 596.78 827.38 598.40 826.55 C 672.94 796.11 732.09 731.31 756.95 654.86 C 763.76 631.26 767.36 606.59 766.02 582.01 C 763.26 526.63 738.78 473.87 702.49 432.48 C 693.53 421.51 683.49 411.38 672.37 402.61 C 665.61 397.23 659.26 390.90 650.97 387.93 C 640.02 383.96 627.92 382.55 618.10 375.91 Z" />
<path fill="#59a9ce" opacity="1.00" d=" M 181.13 648.94 C 187.99 645.39 194.24 640.49 201.73 638.29 C 203.49 639.57 205.66 639.23 207.69 639.07 C 213.23 640.30 219.60 637.82 224.57 640.83 C 209.93 642.31 194.96 643.42 181.13 648.94 Z" />
<path fill="#59a9ce" opacity="1.00" d=" M 213.50 708.00 C 219.12 705.83 225.96 705.75 231.76 706.23 C 235.01 718.65 237.63 731.32 239.49 744.03 C 238.48 749.43 234.14 754.31 228.95 756.22 C 228.11 743.83 224.19 731.92 222.12 719.72 C 220.01 719.50 217.90 719.33 215.78 719.32 C 214.97 715.55 214.13 711.80 213.50 708.00 Z" />
<path fill="#59a9ce" opacity="1.00" d=" M 881.85 731.52 L 882.97 731.69 C 890.65 746.33 893.22 763.85 889.80 780.06 C 887.54 790.11 879.50 797.26 871.62 803.18 C 871.04 802.43 870.49 801.68 869.97 800.93 C 867.12 787.23 857.35 775.97 845.80 768.56 C 847.42 766.43 849.23 764.44 851.37 762.81 C 857.94 765.78 862.26 771.71 867.39 776.44 C 873.88 775.95 880.01 771.20 881.94 764.90 C 885.88 754.09 883.22 742.54 881.85 731.52 Z" />
<path fill="#59a9ce" opacity="1.00" d=" M 808.14 920.43 C 813.00 916.63 817.68 912.59 821.98 908.15 C 820.40 913.10 819.02 918.15 818.52 923.35 L 818.29 922.59 C 818.14 921.99 817.84 920.81 817.70 920.21 C 814.57 924.94 810.11 928.56 806.24 932.64 C 805.65 931.45 805.07 930.32 804.46 929.17 C 808.87 928.83 811.49 923.79 808.14 920.43 Z" />
</g>
<g id="#d7edf6ff">
<path fill="#d7edf6" opacity="1.00" d=" M 458.98 159.44 C 461.38 156.14 463.43 152.59 466.06 149.45 C 472.67 154.31 474.75 162.86 481.02 168.02 C 484.53 173.11 489.64 176.74 493.29 181.71 C 510.04 202.69 532.68 218.97 558.07 227.71 C 577.05 234.94 597.98 234.73 617.80 231.54 C 647.15 225.67 674.56 212.63 699.66 196.63 C 703.32 193.97 706.97 197.58 709.13 200.36 C 680.64 221.02 648.20 237.94 613.02 242.99 C 590.75 245.01 567.39 243.86 546.96 233.89 C 522.84 223.93 504.61 204.45 487.76 185.25 C 484.84 185.74 482.30 187.32 479.83 188.87 C 476.58 185.85 471.98 184.40 467.61 185.45 C 470.19 182.59 467.70 178.43 466.66 175.39 C 464.11 170.07 463.70 163.49 458.98 159.44 Z" />
<path fill="#d7edf6" opacity="1.00" d=" M 662.42 348.75 C 665.89 349.85 667.43 353.24 667.52 356.66 C 665.35 356.48 663.38 355.56 661.39 354.82 C 662.82 353.07 662.54 350.83 662.42 348.75 Z" />
<path fill="#d7edf6" opacity="1.00" d=" M 208.17 709.18 C 209.94 708.75 211.72 708.37 213.50 708.00 C 214.13 711.80 214.97 715.55 215.78 719.32 L 215.93 720.13 C 214.19 718.44 212.06 717.19 209.57 717.16 L 208.97 717.07 C 208.62 714.45 208.33 711.82 208.17 709.18 Z" />
<path fill="#d7edf6" opacity="1.00" d=" M 745.81 824.64 C 749.74 827.24 748.77 832.27 748.53 836.26 C 746.84 832.71 744.82 828.61 745.81 824.64 Z" />
</g>
<g id="#ffa2b4ff">
<path fill="#ffa2b4" opacity="1.00" d=" M 418.71 716.71 C 424.28 704.33 434.30 692.96 447.83 689.45 C 448.96 689.79 450.08 690.18 451.23 690.51 C 433.64 695.63 421.44 711.92 417.24 729.20 C 415.54 736.59 414.77 744.78 418.00 751.87 C 421.93 747.24 421.12 740.64 423.08 735.17 C 427.66 716.43 440.76 699.60 459.24 693.01 C 461.46 694.21 463.83 695.50 465.11 697.79 C 470.56 707.45 473.96 718.95 471.68 730.05 C 470.19 737.45 469.64 745.21 466.08 752.01 C 460.46 764.58 452.84 778.04 439.42 783.45 C 431.86 786.59 424.22 781.62 418.69 776.82 C 416.25 777.21 413.78 777.14 411.39 776.50 C 408.83 784.32 412.95 792.36 411.02 800.30 C 403.96 772.70 406.93 742.62 418.71 716.71 Z" />
<path fill="#ffa2b4" opacity="1.00" d=" M 528.18 695.35 C 528.68 695.25 529.68 695.05 530.19 694.94 C 526.02 698.86 521.43 702.31 517.53 706.50 C 509.72 715.25 504.95 726.17 501.28 737.19 C 501.12 736.39 500.80 734.80 500.64 734.00 C 497.80 734.75 497.62 738.54 495.94 740.59 C 495.94 739.95 495.96 738.69 495.96 738.06 C 502.01 721.21 512.63 704.61 528.18 695.35 Z" />
</g>
</svg>
