<svg xmlns="http://www.w3.org/2000/svg" width="14" height="18" fill="none" viewBox="0 0 14 18">
  <path fill="#F3B310" fill-rule="evenodd" d="M7.264 17.166h.002l.004-.004.014-.01.054-.04c.047-.033.112-.083.197-.148a19.881 19.881 0 0 0 2.79-2.645c1.517-1.753 3.092-4.256 3.092-7.117a6.47 6.47 0 0 0-1.879-4.56 6.398 6.398 0 0 0-6.996-1.4c-.779.324-1.486.8-2.08 1.399A6.472 6.472 0 0 0 .583 7.202c0 2.861 1.575 5.364 3.091 7.117a19.886 19.886 0 0 0 2.79 2.645c.083.064.167.126.251.188l.015.01.004.003.002.001a.46.46 0 0 0 .528 0Zm2.028-10a2.292 2.292 0 1 1-4.584 0 2.292 2.292 0 0 1 4.584 0Z" clip-rule="evenodd"/>
</svg>
